<svg width="365" height="81" viewBox="0 0 365 81" fill="none" xmlns="http://www.w3.org/2000/svg">
<path d="M82.032 64V18.624H93.488V64H82.032ZM91.12 64V54.336H115.696V64H91.12ZM91.12 45.568V36.16H113.392V45.568H91.12ZM91.12 28.288V18.624H115.312V28.288H91.12ZM133.293 64.896C131.373 64.896 129.474 64.64 127.597 64.128C125.762 63.616 124.034 62.9333 122.413 62.08C120.834 61.184 119.49 60.16 118.381 59.008L124.461 52.8C125.485 53.8667 126.701 54.6987 128.109 55.296C129.56 55.8933 131.096 56.192 132.717 56.192C133.656 56.192 134.36 56.064 134.829 55.808C135.341 55.552 135.597 55.1893 135.597 54.72C135.597 54.0373 135.234 53.5253 134.509 53.184C133.826 52.8 132.909 52.48 131.757 52.224C130.648 51.9253 129.474 51.584 128.237 51.2C127 50.7733 125.805 50.2187 124.653 49.536C123.501 48.8533 122.562 47.8933 121.837 46.656C121.154 45.4187 120.813 43.84 120.813 41.92C120.813 39.9147 121.346 38.1653 122.413 36.672C123.522 35.136 125.058 33.9413 127.021 33.088C128.984 32.192 131.288 31.744 133.933 31.744C136.621 31.744 139.181 32.2133 141.613 33.152C144.045 34.048 146.008 35.4133 147.501 37.248L141.357 43.456C140.333 42.304 139.202 41.5147 137.965 41.088C136.728 40.6187 135.597 40.384 134.573 40.384C133.592 40.384 132.888 40.5333 132.461 40.832C132.034 41.088 131.821 41.4507 131.821 41.92C131.821 42.4747 132.162 42.9227 132.845 43.264C133.57 43.6053 134.488 43.9253 135.597 44.224C136.749 44.48 137.922 44.8213 139.117 45.248C140.354 45.6747 141.528 46.272 142.637 47.04C143.789 47.7653 144.706 48.7467 145.389 49.984C146.114 51.2213 146.477 52.8213 146.477 54.784C146.477 57.8987 145.282 60.3733 142.893 62.208C140.504 64 137.304 64.896 133.293 64.896ZM163.418 64.896C161.498 64.896 159.599 64.64 157.722 64.128C155.887 63.616 154.159 62.9333 152.538 62.08C150.959 61.184 149.615 60.16 148.506 59.008L154.586 52.8C155.61 53.8667 156.826 54.6987 158.234 55.296C159.685 55.8933 161.221 56.192 162.842 56.192C163.781 56.192 164.485 56.064 164.954 55.808C165.466 55.552 165.722 55.1893 165.722 54.72C165.722 54.0373 165.359 53.5253 164.634 53.184C163.951 52.8 163.034 52.48 161.882 52.224C160.773 51.9253 159.599 51.584 158.362 51.2C157.125 50.7733 155.93 50.2187 154.778 49.536C153.626 48.8533 152.687 47.8933 151.962 46.656C151.279 45.4187 150.938 43.84 150.938 41.92C150.938 39.9147 151.471 38.1653 152.538 36.672C153.647 35.136 155.183 33.9413 157.146 33.088C159.109 32.192 161.413 31.744 164.058 31.744C166.746 31.744 169.306 32.2133 171.738 33.152C174.17 34.048 176.133 35.4133 177.626 37.248L171.482 43.456C170.458 42.304 169.327 41.5147 168.09 41.088C166.853 40.6187 165.722 40.384 164.698 40.384C163.717 40.384 163.013 40.5333 162.586 40.832C162.159 41.088 161.946 41.4507 161.946 41.92C161.946 42.4747 162.287 42.9227 162.97 43.264C163.695 43.6053 164.613 43.9253 165.722 44.224C166.874 44.48 168.047 44.8213 169.242 45.248C170.479 45.6747 171.653 46.272 172.762 47.04C173.914 47.7653 174.831 48.7467 175.514 49.984C176.239 51.2213 176.602 52.8213 176.602 54.784C176.602 57.8987 175.407 60.3733 173.018 62.208C170.629 64 167.429 64.896 163.418 64.896ZM194.695 64.64C191.794 64.64 189.212 63.936 186.951 62.528C184.69 61.12 182.919 59.2 181.639 56.768C180.359 54.2933 179.719 51.4987 179.719 48.384C179.719 45.2267 180.359 42.4107 181.639 39.936C182.919 37.4613 184.69 35.5413 186.951 34.176C189.212 32.768 191.794 32.064 194.695 32.064C196.658 32.064 198.45 32.4267 200.071 33.152C201.692 33.8347 203.015 34.816 204.039 36.096C205.106 37.376 205.746 38.8267 205.959 40.448V56.192C205.746 57.856 205.106 59.328 204.039 60.608C203.015 61.8453 201.692 62.8267 200.071 63.552C198.45 64.2773 196.658 64.64 194.695 64.64ZM197.063 54.72C198.898 54.72 200.37 54.1227 201.479 52.928C202.631 51.7333 203.207 50.1973 203.207 48.32C203.207 47.0827 202.951 45.9947 202.439 45.056C201.927 44.1173 201.202 43.3707 200.263 42.816C199.367 42.2613 198.322 41.984 197.127 41.984C195.932 41.984 194.866 42.2613 193.927 42.816C193.031 43.3707 192.306 44.1387 191.751 45.12C191.239 46.0587 190.983 47.1253 190.983 48.32C190.983 49.5573 191.239 50.6667 191.751 51.648C192.263 52.5867 192.988 53.3333 193.927 53.888C194.866 54.4427 195.911 54.72 197.063 54.72ZM202.759 64V55.616L204.359 47.936L202.759 40.384V32.704H213.703V64H202.759ZM229.546 64.064L217.002 32.704H228.906L236.586 58.496H231.914L239.658 32.704H251.562L238.698 64.064H229.546ZM222.122 77.248L231.402 56.832L238.698 64.064L233.322 77.248H222.122ZM264.683 64V55.488H274.155C275.947 55.488 277.355 54.9973 278.379 54.016C279.445 52.992 279.979 51.6693 279.979 50.048C279.979 48.9813 279.744 48.0427 279.275 47.232C278.805 46.3787 278.123 45.7387 277.227 45.312C276.373 44.8427 275.349 44.608 274.155 44.608H264.683V36.352H273.451C274.944 36.352 276.16 35.9893 277.099 35.264C278.08 34.496 278.571 33.3227 278.571 31.744C278.571 30.1653 278.08 29.0133 277.099 28.288C276.16 27.52 274.944 27.136 273.451 27.136H264.683V18.624H276.203C279.019 18.624 281.451 19.1573 283.499 20.224C285.589 21.2907 287.189 22.72 288.299 24.512C289.408 26.304 289.963 28.3307 289.963 30.592C289.963 33.6213 288.917 36.1387 286.826 38.144C284.779 40.1067 281.792 41.3227 277.867 41.792V37.952C282.219 38.464 285.547 39.872 287.851 42.176C290.155 44.4373 291.307 47.296 291.307 50.752C291.307 53.312 290.667 55.5947 289.387 57.6C288.107 59.5627 286.293 61.12 283.947 62.272C281.643 63.424 278.912 64 275.755 64H264.683ZM255.595 64V18.624H266.859V64H255.595ZM311.876 64.704C308.505 64.704 305.497 64 302.852 62.592C300.249 61.1413 298.18 59.1787 296.644 56.704C295.108 54.1867 294.34 51.3707 294.34 48.256C294.34 45.1413 295.086 42.368 296.58 39.936C298.116 37.4613 300.206 35.52 302.852 34.112C305.497 32.6613 308.484 31.936 311.812 31.936C315.14 31.936 318.105 32.6613 320.708 34.112C323.353 35.52 325.444 37.4613 326.979 39.936C328.516 42.368 329.284 45.1413 329.284 48.256C329.284 51.3707 328.516 54.1867 326.979 56.704C325.486 59.1787 323.417 61.1413 320.772 62.592C318.169 64 315.204 64.704 311.876 64.704ZM311.812 54.784C313.049 54.784 314.116 54.528 315.012 54.016C315.95 53.4613 316.676 52.6933 317.188 51.712C317.7 50.7307 317.956 49.6 317.956 48.32C317.956 47.04 317.678 45.9307 317.124 44.992C316.612 44.0107 315.908 43.264 315.012 42.752C314.116 42.1973 313.049 41.92 311.812 41.92C310.617 41.92 309.55 42.1973 308.612 42.752C307.673 43.3067 306.948 44.0747 306.436 45.056C305.924 45.9947 305.668 47.104 305.668 48.384C305.668 49.6213 305.924 50.7307 306.436 51.712C306.948 52.6933 307.673 53.4613 308.612 54.016C309.55 54.528 310.617 54.784 311.812 54.784ZM352.024 64L345.304 52.416L342.744 50.88L330.392 32.704H343.256L349.848 43.968L352.28 45.376L364.824 64H352.024ZM329.752 64L342.616 45.504L348.952 52.352L341.656 64H329.752ZM351.896 50.88L345.56 44.032L352.28 32.704H364.184L351.896 50.88Z" fill="black"/>
<circle cx="34.5" cy="40.5" r="34.5" fill="black"/>
<path d="M32.8213 42.5684L32.2451 62.9922L14 53.9355L14.5762 33.5117L32.8213 42.5684ZM54.5879 53.9355L36.3428 62.9922L35.7666 42.5684L54.0127 33.5117L54.5879 53.9355ZM51.4092 29.0244H51.4102L34.2725 40.0488L17.1357 29.0244H17.1348L34.2725 18L51.4092 29.0244Z" fill="white"/>
</svg>
