<svg width="578" height="100" viewBox="0 0 578 100" fill="none" xmlns="http://www.w3.org/2000/svg">
<g filter="url(#filter0_d_303_97)">
<rect width="570" height="92" rx="12" fill="#3B3B3B"/>
</g>
<path d="M20.94 36.2C19.94 36.2 19.0133 36.02 18.16 35.66C17.3067 35.2867 16.56 34.7733 15.92 34.12C15.2933 33.4667 14.8067 32.7067 14.46 31.84C14.1133 30.9733 13.94 30.0467 13.94 29.06C13.94 28.06 14.1133 27.1267 14.46 26.26C14.8067 25.3933 15.2933 24.64 15.92 24C16.56 23.3467 17.3 22.84 18.14 22.48C18.9933 22.1067 19.92 21.92 20.92 21.92C22.0133 21.92 22.9733 22.1067 23.8 22.48C24.6267 22.8533 25.36 23.36 26 24L24.7 25.3C24.26 24.8067 23.72 24.42 23.08 24.14C22.4533 23.86 21.7333 23.72 20.92 23.72C20.1867 23.72 19.5133 23.8533 18.9 24.12C18.2867 24.3733 17.7533 24.74 17.3 25.22C16.8467 25.7 16.4933 26.2667 16.24 26.92C16 27.5733 15.88 28.2867 15.88 29.06C15.88 29.8333 16 30.5467 16.24 31.2C16.4933 31.8533 16.8467 32.42 17.3 32.9C17.7533 33.38 18.2867 33.7533 18.9 34.02C19.5133 34.2733 20.1867 34.4 20.92 34.4C21.7867 34.4 22.54 34.26 23.18 33.98C23.82 33.6867 24.36 33.2933 24.8 32.8L26.1 34.08C25.46 34.7467 24.7067 35.2667 23.84 35.64C22.9867 36.0133 22.02 36.2 20.94 36.2ZM32.0975 36.2C31.1642 36.2 30.3242 35.98 29.5775 35.54C28.8308 35.1 28.2375 34.5067 27.7975 33.76C27.3575 33 27.1375 32.1533 27.1375 31.22C27.1375 30.3 27.3575 29.4733 27.7975 28.74C28.2375 27.9933 28.8308 27.4 29.5775 26.96C30.3242 26.52 31.1642 26.3 32.0975 26.3C33.0175 26.3 33.8508 26.52 34.5975 26.96C35.3575 27.3867 35.9575 27.9733 36.3975 28.72C36.8375 29.4667 37.0575 30.3 37.0575 31.22C37.0575 32.1533 36.8375 33 36.3975 33.76C35.9575 34.5067 35.3575 35.1 34.5975 35.54C33.8508 35.98 33.0175 36.2 32.0975 36.2ZM32.0975 34.46C32.6975 34.46 33.2308 34.32 33.6975 34.04C34.1642 33.76 34.5308 33.38 34.7975 32.9C35.0642 32.4067 35.1975 31.8467 35.1975 31.22C35.1975 30.6067 35.0575 30.06 34.7775 29.58C34.5108 29.1 34.1442 28.7267 33.6775 28.46C33.2242 28.18 32.6975 28.04 32.0975 28.04C31.4975 28.04 30.9642 28.18 30.4975 28.46C30.0308 28.7267 29.6642 29.1 29.3975 29.58C29.1308 30.06 28.9975 30.6067 28.9975 31.22C28.9975 31.8467 29.1308 32.4067 29.3975 32.9C29.6642 33.38 30.0308 33.76 30.4975 34.04C30.9642 34.32 31.4975 34.46 32.0975 34.46ZM43.2458 36V26.5H45.0458V36H43.2458ZM49.6658 36V30.26C49.6658 29.5533 49.4458 29 49.0058 28.6C48.5791 28.1867 48.0391 27.98 47.3858 27.98C46.9458 27.98 46.5524 28.0733 46.2058 28.26C45.8591 28.4467 45.5791 28.7067 45.3658 29.04C45.1524 29.3733 45.0458 29.7733 45.0458 30.24L44.3058 29.88C44.3058 29.16 44.4591 28.5333 44.7658 28C45.0858 27.4667 45.5191 27.0533 46.0658 26.76C46.6124 26.4533 47.2258 26.3 47.9058 26.3C48.5724 26.3 49.1724 26.4467 49.7058 26.74C50.2524 27.0333 50.6791 27.4467 50.9858 27.98C51.3058 28.5133 51.4658 29.1467 51.4658 29.88V36H49.6658ZM56.0858 36V30.26C56.0858 29.5533 55.8658 29 55.4258 28.6C54.9991 28.1867 54.4658 27.98 53.8258 27.98C53.3858 27.98 52.9858 28.0733 52.6258 28.26C52.2791 28.4467 51.9991 28.7067 51.7858 29.04C51.5724 29.3733 51.4658 29.7733 51.4658 30.24L50.4458 29.88C50.4858 29.1467 50.6791 28.52 51.0258 28C51.3858 27.4667 51.8458 27.0533 52.4058 26.76C52.9658 26.4533 53.5791 26.3 54.2458 26.3C54.9391 26.3 55.5591 26.4467 56.1058 26.74C56.6524 27.0333 57.0858 27.4467 57.4058 27.98C57.7391 28.5133 57.9058 29.1533 57.9058 29.9V36H56.0858ZM64.6952 36.2C63.7618 36.2 62.9218 35.98 62.1752 35.54C61.4285 35.1 60.8352 34.5067 60.3952 33.76C59.9552 33 59.7352 32.1533 59.7352 31.22C59.7352 30.3 59.9552 29.4733 60.3952 28.74C60.8352 27.9933 61.4285 27.4 62.1752 26.96C62.9218 26.52 63.7618 26.3 64.6952 26.3C65.6152 26.3 66.4485 26.52 67.1952 26.96C67.9552 27.3867 68.5552 27.9733 68.9952 28.72C69.4352 29.4667 69.6552 30.3 69.6552 31.22C69.6552 32.1533 69.4352 33 68.9952 33.76C68.5552 34.5067 67.9552 35.1 67.1952 35.54C66.4485 35.98 65.6152 36.2 64.6952 36.2ZM64.6952 34.46C65.2952 34.46 65.8285 34.32 66.2952 34.04C66.7618 33.76 67.1285 33.38 67.3952 32.9C67.6618 32.4067 67.7952 31.8467 67.7952 31.22C67.7952 30.6067 67.6552 30.06 67.3752 29.58C67.1085 29.1 66.7418 28.7267 66.2752 28.46C65.8218 28.18 65.2952 28.04 64.6952 28.04C64.0952 28.04 63.5618 28.18 63.0952 28.46C62.6285 28.7267 62.2618 29.1 61.9952 29.58C61.7285 30.06 61.5952 30.6067 61.5952 31.22C61.5952 31.8467 61.7285 32.4067 61.9952 32.9C62.2618 33.38 62.6285 33.76 63.0952 34.04C63.5618 34.32 64.0952 34.46 64.6952 34.46ZM72.8503 36V22.52H74.6503V36H72.8503ZM70.5103 28.14V26.5H76.9903V28.14H70.5103ZM81.8736 36.08L77.7536 26.5H79.7536L82.8136 34H82.1736L85.3936 26.5H87.3936L82.9536 36.08H81.8736ZM79.1536 39.98L81.9536 34.24L82.9536 36.08L81.1536 39.98H79.1536ZM91.1806 36L87.4206 26.5H89.3006L92.0206 33.9H91.4206L94.1206 26.5H95.1606L97.8606 33.9H97.2606L99.9806 26.5H101.861L98.1206 36H97.0606L94.3206 28.82H94.9806L92.2206 36H91.1806ZM107.281 36.2C106.507 36.2 105.807 36.0267 105.181 35.68C104.567 35.32 104.087 34.8267 103.741 34.2C103.394 33.5733 103.221 32.8467 103.221 32.02V26.5H105.021V31.94C105.021 32.46 105.107 32.9133 105.281 33.3C105.467 33.6733 105.734 33.96 106.081 34.16C106.427 34.36 106.834 34.46 107.301 34.46C108.007 34.46 108.561 34.24 108.961 33.8C109.361 33.3467 109.561 32.7267 109.561 31.94V26.5H111.361V32.02C111.361 32.8467 111.187 33.5733 110.841 34.2C110.494 34.8267 110.014 35.32 109.401 35.68C108.801 36.0267 108.094 36.2 107.281 36.2ZM112.573 40.18C111.96 40.18 111.446 40.08 111.033 39.88C110.606 39.68 110.226 39.3933 109.893 39.02L111.053 37.84C111.24 38.0667 111.446 38.2333 111.673 38.34C111.886 38.4467 112.146 38.5 112.453 38.5C112.853 38.5 113.2 38.3733 113.493 38.12C113.786 37.88 113.933 37.5133 113.933 37.02V26.5H115.733V37C115.733 37.6933 115.586 38.2733 115.293 38.74C115 39.2067 114.613 39.56 114.133 39.8C113.653 40.0533 113.133 40.18 112.573 40.18ZM114.853 24.6C114.533 24.6 114.266 24.4933 114.053 24.28C113.84 24.0533 113.733 23.7733 113.733 23.44C113.733 23.12 113.84 22.8533 114.053 22.64C114.266 22.4133 114.533 22.3 114.853 22.3C115.186 22.3 115.46 22.4133 115.673 22.64C115.886 22.8533 115.993 23.12 115.993 23.44C115.993 23.7733 115.886 24.0533 115.673 24.28C115.46 24.4933 115.186 24.6 114.853 24.6ZM122.783 36.2C121.836 36.2 120.983 35.9867 120.223 35.56C119.463 35.12 118.863 34.5267 118.423 33.78C117.983 33.0333 117.763 32.1867 117.763 31.24C117.763 30.3067 117.976 29.4667 118.403 28.72C118.843 27.9733 119.429 27.3867 120.163 26.96C120.909 26.52 121.743 26.3 122.663 26.3C123.543 26.3 124.316 26.5 124.983 26.9C125.663 27.3 126.189 27.8533 126.563 28.56C126.949 29.2667 127.143 30.0667 127.143 30.96C127.143 31.0933 127.136 31.24 127.123 31.4C127.109 31.5467 127.083 31.72 127.043 31.92H119.023V30.42H126.083L125.423 31C125.423 30.36 125.309 29.82 125.083 29.38C124.856 28.9267 124.536 28.58 124.123 28.34C123.709 28.0867 123.209 27.96 122.623 27.96C122.009 27.96 121.469 28.0933 121.003 28.36C120.536 28.6267 120.176 29 119.923 29.48C119.669 29.96 119.543 30.5267 119.543 31.18C119.543 31.8467 119.676 32.4333 119.943 32.94C120.209 33.4333 120.589 33.82 121.083 34.1C121.576 34.3667 122.143 34.5 122.783 34.5C123.316 34.5 123.803 34.4067 124.243 34.22C124.696 34.0333 125.083 33.7533 125.403 33.38L126.563 34.56C126.109 35.0933 125.549 35.5 124.883 35.78C124.229 36.06 123.529 36.2 122.783 36.2ZM137.605 36.2C136.672 36.2 135.825 35.98 135.065 35.54C134.319 35.1 133.725 34.5067 133.285 33.76C132.859 33 132.645 32.16 132.645 31.24C132.645 30.3067 132.859 29.4667 133.285 28.72C133.725 27.9733 134.319 27.3867 135.065 26.96C135.825 26.52 136.672 26.3 137.605 26.3C138.339 26.3 139.019 26.44 139.645 26.72C140.272 26.9867 140.812 27.38 141.265 27.9L140.065 29.1C139.772 28.7533 139.412 28.4933 138.985 28.32C138.572 28.1333 138.112 28.04 137.605 28.04C137.005 28.04 136.472 28.18 136.005 28.46C135.539 28.7267 135.172 29.1 134.905 29.58C134.639 30.06 134.505 30.6133 134.505 31.24C134.505 31.8667 134.639 32.42 134.905 32.9C135.172 33.38 135.539 33.76 136.005 34.04C136.472 34.32 137.005 34.46 137.605 34.46C138.112 34.46 138.572 34.3733 138.985 34.2C139.412 34.0133 139.779 33.7467 140.085 33.4L141.265 34.6C140.825 35.1067 140.285 35.5 139.645 35.78C139.019 36.06 138.339 36.2 137.605 36.2ZM142.29 35.02L147.93 27.48H150.05L144.41 35.02H142.29ZM142.29 36V35.02L143.89 34.36H149.93V36H142.29ZM142.63 28.14V26.5H150.05V27.48L148.39 28.14H142.63ZM151.996 29.56L157.476 26.4V28.12L151.996 31.28V29.56ZM153.836 36V21.72H155.636V36H153.836ZM164.441 36.2C163.508 36.2 162.668 35.98 161.921 35.54C161.175 35.1 160.581 34.5067 160.141 33.76C159.701 33 159.481 32.1533 159.481 31.22C159.481 30.3 159.701 29.4733 160.141 28.74C160.581 27.9933 161.175 27.4 161.921 26.96C162.668 26.52 163.508 26.3 164.441 26.3C165.361 26.3 166.195 26.52 166.941 26.96C167.701 27.3867 168.301 27.9733 168.741 28.72C169.181 29.4667 169.401 30.3 169.401 31.22C169.401 32.1533 169.181 33 168.741 33.76C168.301 34.5067 167.701 35.1 166.941 35.54C166.195 35.98 165.361 36.2 164.441 36.2ZM164.441 34.46C165.041 34.46 165.575 34.32 166.041 34.04C166.508 33.76 166.875 33.38 167.141 32.9C167.408 32.4067 167.541 31.8467 167.541 31.22C167.541 30.6067 167.401 30.06 167.121 29.58C166.855 29.1 166.488 28.7267 166.021 28.46C165.568 28.18 165.041 28.04 164.441 28.04C163.841 28.04 163.308 28.18 162.841 28.46C162.375 28.7267 162.008 29.1 161.741 29.58C161.475 30.06 161.341 30.6067 161.341 31.22C161.341 31.8467 161.475 32.4067 161.741 32.9C162.008 33.38 162.375 33.76 162.841 34.04C163.308 34.32 163.841 34.46 164.441 34.46ZM173.876 36L170.116 26.5H171.996L174.716 33.9H174.116L176.816 26.5H177.856L180.556 33.9H179.956L182.676 26.5H184.556L180.816 36H179.756L177.016 28.82H177.676L174.916 36H173.876ZM186.02 36V26.5H187.82V36H186.02ZM186.92 24.6C186.586 24.6 186.313 24.4933 186.1 24.28C185.886 24.0533 185.78 23.7733 185.78 23.44C185.78 23.12 185.886 22.8533 186.1 22.64C186.313 22.4133 186.586 22.3 186.92 22.3C187.253 22.3 187.526 22.4133 187.74 22.64C187.953 22.8533 188.06 23.12 188.06 23.44C188.06 23.7733 187.953 24.0533 187.74 24.28C187.526 24.4933 187.253 24.6 186.92 24.6ZM194.872 36.2C193.926 36.2 193.072 35.9867 192.312 35.56C191.552 35.12 190.952 34.5267 190.512 33.78C190.072 33.0333 189.852 32.1867 189.852 31.24C189.852 30.3067 190.066 29.4667 190.492 28.72C190.932 27.9733 191.519 27.3867 192.252 26.96C192.999 26.52 193.832 26.3 194.752 26.3C195.632 26.3 196.406 26.5 197.072 26.9C197.752 27.3 198.279 27.8533 198.652 28.56C199.039 29.2667 199.232 30.0667 199.232 30.96C199.232 31.0933 199.226 31.24 199.212 31.4C199.199 31.5467 199.172 31.72 199.132 31.92H191.112V30.42H198.172L197.512 31C197.512 30.36 197.399 29.82 197.172 29.38C196.946 28.9267 196.626 28.58 196.212 28.34C195.799 28.0867 195.299 27.96 194.712 27.96C194.099 27.96 193.559 28.0933 193.092 28.36C192.626 28.6267 192.266 29 192.012 29.48C191.759 29.96 191.632 30.5267 191.632 31.18C191.632 31.8467 191.766 32.4333 192.032 32.94C192.299 33.4333 192.679 33.82 193.172 34.1C193.666 34.3667 194.232 34.5 194.872 34.5C195.406 34.5 195.892 34.4067 196.332 34.22C196.786 34.0333 197.172 33.7533 197.492 33.38L198.652 34.56C198.199 35.0933 197.639 35.5 196.972 35.78C196.319 36.06 195.619 36.2 194.872 36.2ZM207.275 36L202.835 31.14L207.235 26.5H209.415L204.515 31.62L204.595 30.58L209.595 36H207.275ZM201.195 36V21.72H202.995V36H201.195ZM214.649 36.2C213.782 36.2 212.996 35.9867 212.289 35.56C211.582 35.12 211.022 34.5267 210.609 33.78C210.209 33.0333 210.009 32.1933 210.009 31.26C210.009 30.3267 210.209 29.4867 210.609 28.74C211.022 27.9933 211.576 27.4 212.269 26.96C212.976 26.52 213.769 26.3 214.649 26.3C215.369 26.3 216.009 26.4533 216.569 26.76C217.142 27.0533 217.602 27.4667 217.949 28C218.296 28.52 218.489 29.1267 218.529 29.82V32.68C218.489 33.36 218.296 33.9667 217.949 34.5C217.616 35.0333 217.162 35.4533 216.589 35.76C216.029 36.0533 215.382 36.2 214.649 36.2ZM214.949 34.5C215.842 34.5 216.562 34.2 217.109 33.6C217.656 32.9867 217.929 32.2067 217.929 31.26C217.929 30.6067 217.802 30.04 217.549 29.56C217.309 29.0667 216.962 28.6867 216.509 28.42C216.056 28.14 215.529 28 214.929 28C214.329 28 213.796 28.14 213.329 28.42C212.876 28.7 212.516 29.0867 212.249 29.58C211.996 30.06 211.869 30.6133 211.869 31.24C211.869 31.88 211.996 32.4467 212.249 32.94C212.516 33.42 212.882 33.8 213.349 34.08C213.816 34.36 214.349 34.5 214.949 34.5ZM217.809 36V33.44L218.149 31.12L217.809 28.82V26.5H219.629V36H217.809ZM230.43 36.2C229.55 36.2 228.763 35.9867 228.07 35.56C227.377 35.12 226.823 34.5267 226.41 33.78C226.01 33.0333 225.81 32.1933 225.81 31.26C225.81 30.3267 226.01 29.4867 226.41 28.74C226.823 27.9933 227.377 27.4 228.07 26.96C228.763 26.52 229.55 26.3 230.43 26.3C231.137 26.3 231.777 26.4533 232.35 26.76C232.923 27.0533 233.383 27.4667 233.73 28C234.09 28.52 234.29 29.1267 234.33 29.82V32.68C234.29 33.36 234.097 33.9667 233.75 34.5C233.403 35.0333 232.943 35.4533 232.37 35.76C231.797 36.0533 231.15 36.2 230.43 36.2ZM230.73 34.5C231.33 34.5 231.85 34.36 232.29 34.08C232.743 33.8 233.097 33.42 233.35 32.94C233.603 32.4467 233.73 31.8867 233.73 31.26C233.73 30.6067 233.597 30.04 233.33 29.56C233.077 29.08 232.723 28.7 232.27 28.42C231.83 28.14 231.31 28 230.71 28C230.11 28 229.583 28.14 229.13 28.42C228.677 28.7 228.317 29.0867 228.05 29.58C227.797 30.06 227.67 30.6133 227.67 31.24C227.67 31.88 227.797 32.4467 228.05 32.94C228.317 33.42 228.677 33.8 229.13 34.08C229.597 34.36 230.13 34.5 230.73 34.5ZM235.43 36H233.61V33.44L233.95 31.12L233.61 28.82V21.72H235.43V36ZM242.39 36.2C241.457 36.2 240.617 35.98 239.87 35.54C239.124 35.1 238.53 34.5067 238.09 33.76C237.65 33 237.43 32.1533 237.43 31.22C237.43 30.3 237.65 29.4733 238.09 28.74C238.53 27.9933 239.124 27.4 239.87 26.96C240.617 26.52 241.457 26.3 242.39 26.3C243.31 26.3 244.144 26.52 244.89 26.96C245.65 27.3867 246.25 27.9733 246.69 28.72C247.13 29.4667 247.35 30.3 247.35 31.22C247.35 32.1533 247.13 33 246.69 33.76C246.25 34.5067 245.65 35.1 244.89 35.54C244.144 35.98 243.31 36.2 242.39 36.2ZM242.39 34.46C242.99 34.46 243.524 34.32 243.99 34.04C244.457 33.76 244.824 33.38 245.09 32.9C245.357 32.4067 245.49 31.8467 245.49 31.22C245.49 30.6067 245.35 30.06 245.07 29.58C244.804 29.1 244.437 28.7267 243.97 28.46C243.517 28.18 242.99 28.04 242.39 28.04C241.79 28.04 241.257 28.18 240.79 28.46C240.324 28.7267 239.957 29.1 239.69 29.58C239.424 30.06 239.29 30.6067 239.29 31.22C239.29 31.8467 239.424 32.4067 239.69 32.9C239.957 33.38 240.324 33.76 240.79 34.04C241.257 34.32 241.79 34.46 242.39 34.46ZM258.539 36.2C257.819 36.2 257.165 36.0533 256.579 35.76C256.005 35.4533 255.545 35.0333 255.199 34.5C254.852 33.9667 254.659 33.36 254.619 32.68V29.82C254.659 29.1267 254.852 28.52 255.199 28C255.559 27.4667 256.025 27.0533 256.599 26.76C257.185 26.4533 257.832 26.3 258.539 26.3C259.405 26.3 260.185 26.52 260.879 26.96C261.585 27.4 262.139 27.9933 262.539 28.74C262.939 29.4867 263.139 30.3267 263.139 31.26C263.139 32.1933 262.939 33.0333 262.539 33.78C262.139 34.5267 261.585 35.12 260.879 35.56C260.185 35.9867 259.405 36.2 258.539 36.2ZM253.539 39.98V26.5H255.339V29L254.999 31.3L255.339 33.62V39.98H253.539ZM258.239 34.5C258.839 34.5 259.365 34.36 259.819 34.08C260.272 33.8 260.632 33.42 260.899 32.94C261.165 32.4467 261.299 31.88 261.299 31.24C261.299 30.6133 261.165 30.0533 260.899 29.56C260.632 29.0667 260.272 28.6867 259.819 28.42C259.365 28.14 258.845 28 258.259 28C257.659 28 257.132 28.14 256.679 28.42C256.225 28.6867 255.872 29.0667 255.619 29.56C255.365 30.0533 255.239 30.62 255.239 31.26C255.239 31.8867 255.359 32.4467 255.599 32.94C255.852 33.42 256.205 33.8 256.659 34.08C257.125 34.36 257.652 34.5 258.239 34.5ZM265.179 36V26.5H266.979V36H265.179ZM266.979 30.58L266.299 30.28C266.299 29.0667 266.579 28.1 267.139 27.38C267.699 26.66 268.506 26.3 269.559 26.3C270.039 26.3 270.473 26.3867 270.859 26.56C271.246 26.72 271.606 26.9933 271.939 27.38L270.759 28.6C270.559 28.3867 270.339 28.2333 270.099 28.14C269.859 28.0467 269.579 28 269.259 28C268.593 28 268.046 28.2133 267.619 28.64C267.193 29.0667 266.979 29.7133 266.979 30.58ZM272.232 35.02L277.872 27.48H279.992L274.352 35.02H272.232ZM272.232 36V35.02L273.832 34.36H279.872V36H272.232ZM272.572 28.14V26.5H279.992V27.48L278.332 28.14H272.572ZM286.161 36.2C285.215 36.2 284.361 35.9867 283.601 35.56C282.841 35.12 282.241 34.5267 281.801 33.78C281.361 33.0333 281.141 32.1867 281.141 31.24C281.141 30.3067 281.355 29.4667 281.781 28.72C282.221 27.9733 282.808 27.3867 283.541 26.96C284.288 26.52 285.121 26.3 286.041 26.3C286.921 26.3 287.695 26.5 288.361 26.9C289.041 27.3 289.568 27.8533 289.941 28.56C290.328 29.2667 290.521 30.0667 290.521 30.96C290.521 31.0933 290.515 31.24 290.501 31.4C290.488 31.5467 290.461 31.72 290.421 31.92H282.401V30.42H289.461L288.801 31C288.801 30.36 288.688 29.82 288.461 29.38C288.235 28.9267 287.915 28.58 287.501 28.34C287.088 28.0867 286.588 27.96 286.001 27.96C285.388 27.96 284.848 28.0933 284.381 28.36C283.915 28.6267 283.555 29 283.301 29.48C283.048 29.96 282.921 30.5267 282.921 31.18C282.921 31.8467 283.055 32.4333 283.321 32.94C283.588 33.4333 283.968 33.82 284.461 34.1C284.955 34.3667 285.521 34.5 286.161 34.5C286.695 34.5 287.181 34.4067 287.621 34.22C288.075 34.0333 288.461 33.7533 288.781 33.38L289.941 34.56C289.488 35.0933 288.928 35.5 288.261 35.78C287.608 36.06 286.908 36.2 286.161 36.2ZM292.484 36V26.5H294.284V36H292.484ZM298.904 36V30.26C298.904 29.5533 298.684 29 298.244 28.6C297.817 28.1867 297.277 27.98 296.624 27.98C296.184 27.98 295.791 28.0733 295.444 28.26C295.097 28.4467 294.817 28.7067 294.604 29.04C294.391 29.3733 294.284 29.7733 294.284 30.24L293.544 29.88C293.544 29.16 293.697 28.5333 294.004 28C294.324 27.4667 294.757 27.0533 295.304 26.76C295.851 26.4533 296.464 26.3 297.144 26.3C297.811 26.3 298.411 26.4467 298.944 26.74C299.491 27.0333 299.917 27.4467 300.224 27.98C300.544 28.5133 300.704 29.1467 300.704 29.88V36H298.904ZM305.324 36V30.26C305.324 29.5533 305.104 29 304.664 28.6C304.237 28.1867 303.704 27.98 303.064 27.98C302.624 27.98 302.224 28.0733 301.864 28.26C301.517 28.4467 301.237 28.7067 301.024 29.04C300.811 29.3733 300.704 29.7733 300.704 30.24L299.684 29.88C299.724 29.1467 299.917 28.52 300.264 28C300.624 27.4667 301.084 27.0533 301.644 26.76C302.204 26.4533 302.817 26.3 303.484 26.3C304.177 26.3 304.797 26.4467 305.344 26.74C305.891 27.0333 306.324 27.4467 306.644 27.98C306.977 28.5133 307.144 29.1533 307.144 29.9V36H305.324ZM309.613 36V26.5H311.413V36H309.613ZM310.513 24.6C310.18 24.6 309.907 24.4933 309.693 24.28C309.48 24.0533 309.373 23.7733 309.373 23.44C309.373 23.12 309.48 22.8533 309.693 22.64C309.907 22.4133 310.18 22.3 310.513 22.3C310.847 22.3 311.12 22.4133 311.333 22.64C311.547 22.8533 311.653 23.12 311.653 23.44C311.653 23.7733 311.547 24.0533 311.333 24.28C311.12 24.4933 310.847 24.6 310.513 24.6ZM318.106 36.2C317.239 36.2 316.453 35.9867 315.746 35.56C315.039 35.12 314.479 34.5267 314.066 33.78C313.666 33.0333 313.466 32.1933 313.466 31.26C313.466 30.3267 313.666 29.4867 314.066 28.74C314.479 27.9933 315.033 27.4 315.726 26.96C316.433 26.52 317.226 26.3 318.106 26.3C318.826 26.3 319.466 26.4533 320.026 26.76C320.599 27.0533 321.059 27.4667 321.406 28C321.753 28.52 321.946 29.1267 321.986 29.82V32.68C321.946 33.36 321.753 33.9667 321.406 34.5C321.073 35.0333 320.619 35.4533 320.046 35.76C319.486 36.0533 318.839 36.2 318.106 36.2ZM318.406 34.5C319.299 34.5 320.019 34.2 320.566 33.6C321.113 32.9867 321.386 32.2067 321.386 31.26C321.386 30.6067 321.259 30.04 321.006 29.56C320.766 29.0667 320.419 28.6867 319.966 28.42C319.513 28.14 318.986 28 318.386 28C317.786 28 317.253 28.14 316.786 28.42C316.333 28.7 315.973 29.0867 315.706 29.58C315.453 30.06 315.326 30.6133 315.326 31.24C315.326 31.88 315.453 32.4467 315.706 32.94C315.973 33.42 316.339 33.8 316.806 34.08C317.273 34.36 317.806 34.5 318.406 34.5ZM321.266 36V33.44L321.606 31.12L321.266 28.82V26.5H323.086V36H321.266ZM332.427 36V30.46C332.427 29.74 332.2 29.1467 331.747 28.68C331.293 28.2133 330.707 27.98 329.987 27.98C329.507 27.98 329.08 28.0867 328.707 28.3C328.333 28.5133 328.04 28.8067 327.827 29.18C327.613 29.5533 327.507 29.98 327.507 30.46L326.767 30.04C326.767 29.32 326.927 28.68 327.247 28.12C327.567 27.56 328.013 27.12 328.587 26.8C329.16 26.4667 329.807 26.3 330.527 26.3C331.247 26.3 331.88 26.48 332.427 26.84C332.987 27.2 333.427 27.6733 333.747 28.26C334.067 28.8333 334.227 29.4467 334.227 30.1V36H332.427ZM325.707 36V26.5H327.507V36H325.707ZM339.784 36.08L335.664 26.5H337.664L340.724 34H340.084L343.304 26.5H345.304L340.864 36.08H339.784ZM337.064 39.98L339.864 34.24L340.864 36.08L339.064 39.98H337.064ZM353.817 36L350.057 26.5H351.937L354.657 33.9H354.057L356.757 26.5H357.797L360.497 33.9H359.897L362.617 26.5H364.497L360.757 36H359.697L356.957 28.82H357.617L354.857 36H353.817ZM370.224 36.2C369.277 36.2 368.424 35.9867 367.664 35.56C366.904 35.12 366.304 34.5267 365.864 33.78C365.424 33.0333 365.204 32.1867 365.204 31.24C365.204 30.3067 365.417 29.4667 365.844 28.72C366.284 27.9733 366.871 27.3867 367.604 26.96C368.351 26.52 369.184 26.3 370.104 26.3C370.984 26.3 371.757 26.5 372.424 26.9C373.104 27.3 373.631 27.8533 374.004 28.56C374.391 29.2667 374.584 30.0667 374.584 30.96C374.584 31.0933 374.577 31.24 374.564 31.4C374.551 31.5467 374.524 31.72 374.484 31.92H366.464V30.42H373.524L372.864 31C372.864 30.36 372.751 29.82 372.524 29.38C372.297 28.9267 371.977 28.58 371.564 28.34C371.151 28.0867 370.651 27.96 370.064 27.96C369.451 27.96 368.911 28.0933 368.444 28.36C367.977 28.6267 367.617 29 367.364 29.48C367.111 29.96 366.984 30.5267 366.984 31.18C366.984 31.8467 367.117 32.4333 367.384 32.94C367.651 33.4333 368.031 33.82 368.524 34.1C369.017 34.3667 369.584 34.5 370.224 34.5C370.757 34.5 371.244 34.4067 371.684 34.22C372.137 34.0333 372.524 33.7533 372.844 33.38L374.004 34.56C373.551 35.0933 372.991 35.5 372.324 35.78C371.671 36.06 370.971 36.2 370.224 36.2ZM379.149 36L375.389 26.5H377.269L379.989 33.9H379.389L382.089 26.5H383.129L385.829 33.9H385.229L387.949 26.5H389.829L386.089 36H385.029L382.289 28.82H382.949L380.189 36H379.149ZM398.149 36V30.46C398.149 29.74 397.923 29.1467 397.469 28.68C397.016 28.2133 396.429 27.98 395.709 27.98C395.229 27.98 394.803 28.0867 394.429 28.3C394.056 28.5133 393.763 28.8067 393.549 29.18C393.336 29.5533 393.229 29.98 393.229 30.46L392.489 30.04C392.489 29.32 392.649 28.68 392.969 28.12C393.289 27.56 393.736 27.12 394.309 26.8C394.883 26.4667 395.529 26.3 396.249 26.3C396.969 26.3 397.603 26.48 398.149 26.84C398.709 27.2 399.149 27.6733 399.469 28.26C399.789 28.8333 399.949 29.4467 399.949 30.1V36H398.149ZM391.429 36V26.5H393.229V36H391.429ZM406.786 36.2C405.84 36.2 404.986 35.9867 404.226 35.56C403.466 35.12 402.866 34.5267 402.426 33.78C401.986 33.0333 401.766 32.1867 401.766 31.24C401.766 30.3067 401.98 29.4667 402.406 28.72C402.846 27.9733 403.433 27.3867 404.166 26.96C404.913 26.52 405.746 26.3 406.666 26.3C407.546 26.3 408.32 26.5 408.986 26.9C409.666 27.3 410.193 27.8533 410.566 28.56C410.953 29.2667 411.146 30.0667 411.146 30.96C411.146 31.0933 411.14 31.24 411.126 31.4C411.113 31.5467 411.086 31.72 411.046 31.92H403.026V30.42H410.086L409.426 31C409.426 30.36 409.313 29.82 409.086 29.38C408.86 28.9267 408.54 28.58 408.126 28.34C407.713 28.0867 407.213 27.96 406.626 27.96C406.013 27.96 405.473 28.0933 405.006 28.36C404.54 28.6267 404.18 29 403.926 29.48C403.673 29.96 403.546 30.5267 403.546 31.18C403.546 31.8467 403.68 32.4333 403.946 32.94C404.213 33.4333 404.593 33.82 405.086 34.1C405.58 34.3667 406.146 34.5 406.786 34.5C407.32 34.5 407.806 34.4067 408.246 34.22C408.7 34.0333 409.086 33.7533 409.406 33.38L410.566 34.56C410.113 35.0933 409.553 35.5 408.886 35.78C408.233 36.06 407.533 36.2 406.786 36.2ZM407.886 39.98C407.34 39.98 406.853 39.84 406.426 39.56C406.013 39.2933 405.806 38.84 405.806 38.2C405.806 37.6667 405.973 37.16 406.306 36.68C406.653 36.2 407.153 35.78 407.806 35.42L408.786 35.8C408.306 36.1067 407.92 36.4333 407.626 36.78C407.346 37.14 407.206 37.5267 407.206 37.94C407.206 38.2067 407.28 38.4133 407.426 38.56C407.586 38.72 407.806 38.8 408.086 38.8C408.286 38.8 408.46 38.7667 408.606 38.7C408.766 38.6333 408.906 38.5667 409.026 38.5L409.506 39.5C409.32 39.62 409.093 39.7267 408.826 39.82C408.573 39.9267 408.26 39.98 407.886 39.98ZM414.276 36V22.52H416.076V36H414.276ZM411.936 28.14V26.5H418.416V28.14H411.936ZM420.179 36V26.5H421.979V36H420.179ZM421.979 30.58L421.299 30.28C421.299 29.0667 421.579 28.1 422.139 27.38C422.699 26.66 423.506 26.3 424.559 26.3C425.039 26.3 425.473 26.3867 425.859 26.56C426.246 26.72 426.606 26.9933 426.939 27.38L425.759 28.6C425.559 28.3867 425.339 28.2333 425.099 28.14C424.859 28.0467 424.579 28 424.259 28C423.593 28 423.046 28.2133 422.619 28.64C422.193 29.0667 421.979 29.7133 421.979 30.58ZM427.232 35.02L432.872 27.48H434.992L429.352 35.02H427.232ZM427.232 36V35.02L428.832 34.36H434.872V36H427.232ZM427.572 28.14V26.5H434.992V27.48L433.332 28.14H427.572ZM443.657 36V30.46C443.657 29.74 443.431 29.1467 442.977 28.68C442.524 28.2133 441.937 27.98 441.217 27.98C440.737 27.98 440.311 28.0867 439.937 28.3C439.564 28.5133 439.271 28.8067 439.057 29.18C438.844 29.5533 438.737 29.98 438.737 30.46L437.997 30.04C437.997 29.32 438.157 28.68 438.477 28.12C438.797 27.56 439.244 27.12 439.817 26.8C440.391 26.4667 441.037 26.3 441.757 26.3C442.477 26.3 443.111 26.48 443.657 26.84C444.217 27.2 444.657 27.6733 444.977 28.26C445.297 28.8333 445.457 29.4467 445.457 30.1V36H443.657ZM436.937 36V26.5H438.737V36H436.937ZM452.294 36.2C451.348 36.2 450.494 35.9867 449.734 35.56C448.974 35.12 448.374 34.5267 447.934 33.78C447.494 33.0333 447.274 32.1867 447.274 31.24C447.274 30.3067 447.488 29.4667 447.914 28.72C448.354 27.9733 448.941 27.3867 449.674 26.96C450.421 26.52 451.254 26.3 452.174 26.3C453.054 26.3 453.828 26.5 454.494 26.9C455.174 27.3 455.701 27.8533 456.074 28.56C456.461 29.2667 456.654 30.0667 456.654 30.96C456.654 31.0933 456.648 31.24 456.634 31.4C456.621 31.5467 456.594 31.72 456.554 31.92H448.534V30.42H455.594L454.934 31C454.934 30.36 454.821 29.82 454.594 29.38C454.368 28.9267 454.048 28.58 453.634 28.34C453.221 28.0867 452.721 27.96 452.134 27.96C451.521 27.96 450.981 28.0933 450.514 28.36C450.048 28.6267 449.688 29 449.434 29.48C449.181 29.96 449.054 30.5267 449.054 31.18C449.054 31.8467 449.188 32.4333 449.454 32.94C449.721 33.4333 450.101 33.82 450.594 34.1C451.088 34.3667 451.654 34.5 452.294 34.5C452.828 34.5 453.314 34.4067 453.754 34.22C454.208 34.0333 454.594 33.7533 454.914 33.38L456.074 34.56C455.621 35.0933 455.061 35.5 454.394 35.78C453.741 36.06 453.041 36.2 452.294 36.2ZM457.417 40.18C456.804 40.18 456.29 40.08 455.877 39.88C455.45 39.68 455.07 39.3933 454.737 39.02L455.897 37.84C456.084 38.0667 456.29 38.2333 456.517 38.34C456.73 38.4467 456.99 38.5 457.297 38.5C457.697 38.5 458.044 38.3733 458.337 38.12C458.63 37.88 458.777 37.5133 458.777 37.02V26.5H460.577V37C460.577 37.6933 460.43 38.2733 460.137 38.74C459.844 39.2067 459.457 39.56 458.977 39.8C458.497 40.0533 457.977 40.18 457.417 40.18ZM459.697 24.6C459.377 24.6 459.11 24.4933 458.897 24.28C458.684 24.0533 458.577 23.7733 458.577 23.44C458.577 23.12 458.684 22.8533 458.897 22.64C459.11 22.4133 459.377 22.3 459.697 22.3C460.03 22.3 460.304 22.4133 460.517 22.64C460.73 22.8533 460.837 23.12 460.837 23.44C460.837 23.7733 460.73 24.0533 460.517 24.28C460.304 24.4933 460.03 24.6 459.697 24.6ZM466.286 31.6L466.266 27.8L466.806 27.78C467.273 27.78 467.68 27.68 468.026 27.48C468.386 27.28 468.666 27.0067 468.866 26.66C469.066 26.3133 469.166 25.9267 469.166 25.5C469.166 25.06 469.066 24.6733 468.866 24.34C468.68 24.0067 468.406 23.7467 468.046 23.56C467.7 23.3733 467.286 23.28 466.806 23.28C466.166 23.28 465.613 23.44 465.146 23.76C464.68 24.08 464.306 24.5333 464.026 25.12L462.706 24.02C463.093 23.2333 463.646 22.62 464.366 22.18C465.1 21.74 465.94 21.52 466.886 21.52C467.7 21.52 468.42 21.6867 469.046 22.02C469.673 22.34 470.16 22.7933 470.506 23.38C470.853 23.9533 471.026 24.62 471.026 25.38C471.026 26.0733 470.866 26.7067 470.546 27.28C470.24 27.84 469.8 28.3067 469.226 28.68C468.666 29.04 468 29.2733 467.226 29.38L468.006 28.58L467.846 31.6H466.286ZM467.046 36.2C466.673 36.2 466.36 36.0733 466.106 35.82C465.866 35.5667 465.746 35.2533 465.746 34.88C465.746 34.5067 465.866 34.2 466.106 33.96C466.36 33.7067 466.673 33.58 467.046 33.58C467.42 33.58 467.726 33.7067 467.966 33.96C468.22 34.2 468.346 34.5067 468.346 34.88C468.346 35.2533 468.22 35.5667 467.966 35.82C467.726 36.0733 467.42 36.2 467.046 36.2Z" fill="white"/>
<defs>
<filter id="filter0_d_303_97" x="0" y="0" width="578" height="100" filterUnits="userSpaceOnUse" color-interpolation-filters="sRGB">
<feFlood flood-opacity="0" result="BackgroundImageFix"/>
<feColorMatrix in="SourceAlpha" type="matrix" values="0 0 0 0 0 0 0 0 0 0 0 0 0 0 0 0 0 0 127 0" result="hardAlpha"/>
<feOffset dx="4" dy="4"/>
<feGaussianBlur stdDeviation="2"/>
<feComposite in2="hardAlpha" operator="out"/>
<feColorMatrix type="matrix" values="0 0 0 0 0 0 0 0 0 0 0 0 0 0 0 0 0 0 0.25 0"/>
<feBlend mode="normal" in2="BackgroundImageFix" result="effect1_dropShadow_303_97"/>
<feBlend mode="normal" in="SourceGraphic" in2="effect1_dropShadow_303_97" result="shape"/>
</filter>
</defs>
</svg>
