<svg width="578" height="100" viewBox="0 0 578 100" fill="none" xmlns="http://www.w3.org/2000/svg">
<g filter="url(#filter0_d_304_126)">
<rect width="570" height="92" rx="12" fill="#3B3B3B"/>
</g>
<path d="M21.94 37.2C20.94 37.2 20.0133 37.02 19.16 36.66C18.3067 36.2867 17.56 35.7733 16.92 35.12C16.2933 34.4667 15.8067 33.7067 15.46 32.84C15.1133 31.9733 14.94 31.0467 14.94 30.06C14.94 29.06 15.1133 28.1267 15.46 27.26C15.8067 26.3933 16.2933 25.64 16.92 25C17.56 24.3467 18.3 23.84 19.14 23.48C19.9933 23.1067 20.92 22.92 21.92 22.92C23.0133 22.92 23.9733 23.1067 24.8 23.48C25.6267 23.8533 26.36 24.36 27 25L25.7 26.3C25.26 25.8067 24.72 25.42 24.08 25.14C23.4533 24.86 22.7333 24.72 21.92 24.72C21.1867 24.72 20.5133 24.8533 19.9 25.12C19.2867 25.3733 18.7533 25.74 18.3 26.22C17.8467 26.7 17.4933 27.2667 17.24 27.92C17 28.5733 16.88 29.2867 16.88 30.06C16.88 30.8333 17 31.5467 17.24 32.2C17.4933 32.8533 17.8467 33.42 18.3 33.9C18.7533 34.38 19.2867 34.7533 19.9 35.02C20.5133 35.2733 21.1867 35.4 21.92 35.4C22.7867 35.4 23.54 35.26 24.18 34.98C24.82 34.6867 25.36 34.2933 25.8 33.8L27.1 35.08C26.46 35.7467 25.7067 36.2667 24.84 36.64C23.9867 37.0133 23.02 37.2 21.94 37.2ZM33.0975 37.2C32.1642 37.2 31.3242 36.98 30.5775 36.54C29.8308 36.1 29.2375 35.5067 28.7975 34.76C28.3575 34 28.1375 33.1533 28.1375 32.22C28.1375 31.3 28.3575 30.4733 28.7975 29.74C29.2375 28.9933 29.8308 28.4 30.5775 27.96C31.3242 27.52 32.1642 27.3 33.0975 27.3C34.0175 27.3 34.8508 27.52 35.5975 27.96C36.3575 28.3867 36.9575 28.9733 37.3975 29.72C37.8375 30.4667 38.0575 31.3 38.0575 32.22C38.0575 33.1533 37.8375 34 37.3975 34.76C36.9575 35.5067 36.3575 36.1 35.5975 36.54C34.8508 36.98 34.0175 37.2 33.0975 37.2ZM33.0975 35.46C33.6975 35.46 34.2308 35.32 34.6975 35.04C35.1642 34.76 35.5308 34.38 35.7975 33.9C36.0642 33.4067 36.1975 32.8467 36.1975 32.22C36.1975 31.6067 36.0575 31.06 35.7775 30.58C35.5108 30.1 35.1442 29.7267 34.6775 29.46C34.2242 29.18 33.6975 29.04 33.0975 29.04C32.4975 29.04 31.9642 29.18 31.4975 29.46C31.0308 29.7267 30.6642 30.1 30.3975 30.58C30.1308 31.06 29.9975 31.6067 29.9975 32.22C29.9975 32.8467 30.1308 33.4067 30.3975 33.9C30.6642 34.38 31.0308 34.76 31.4975 35.04C31.9642 35.32 32.4975 35.46 33.0975 35.46ZM47.2658 37.2C46.7324 37.2 46.2258 37.1333 45.7458 37C45.2791 36.8533 44.8458 36.6533 44.4458 36.4C44.0458 36.1333 43.6991 35.82 43.4058 35.46L44.5658 34.3C44.9124 34.7267 45.3124 35.0467 45.7658 35.26C46.2191 35.46 46.7258 35.56 47.2858 35.56C47.8458 35.56 48.2791 35.4667 48.5858 35.28C48.8924 35.08 49.0458 34.8067 49.0458 34.46C49.0458 34.1133 48.9191 33.8467 48.6658 33.66C48.4258 33.46 48.1124 33.3 47.7258 33.18C47.3391 33.0467 46.9258 32.92 46.4858 32.8C46.0591 32.6667 45.6524 32.5 45.2658 32.3C44.8791 32.1 44.5591 31.8267 44.3058 31.48C44.0658 31.1333 43.9458 30.6733 43.9458 30.1C43.9458 29.5267 44.0858 29.0333 44.3658 28.62C44.6458 28.1933 45.0324 27.8667 45.5258 27.64C46.0324 27.4133 46.6391 27.3 47.3458 27.3C48.0924 27.3 48.7524 27.4333 49.3258 27.7C49.9124 27.9533 50.3924 28.34 50.7658 28.86L49.6058 30.02C49.3391 29.6733 49.0058 29.4067 48.6058 29.22C48.2191 29.0333 47.7791 28.94 47.2858 28.94C46.7658 28.94 46.3658 29.0333 46.0858 29.22C45.8191 29.3933 45.6858 29.64 45.6858 29.96C45.6858 30.28 45.8058 30.5267 46.0458 30.7C46.2858 30.8733 46.5991 31.02 46.9858 31.14C47.3858 31.26 47.7991 31.3867 48.2258 31.52C48.6524 31.64 49.0591 31.8067 49.4458 32.02C49.8324 32.2333 50.1458 32.52 50.3858 32.88C50.6391 33.24 50.7658 33.7133 50.7658 34.3C50.7658 35.1933 50.4458 35.9 49.8058 36.42C49.1791 36.94 48.3324 37.2 47.2658 37.2ZM57.7809 37.2C57.0609 37.2 56.4076 37.0533 55.8209 36.76C55.2476 36.4533 54.7876 36.0333 54.4409 35.5C54.0943 34.9667 53.9009 34.36 53.8609 33.68V30.82C53.9009 30.1267 54.0943 29.52 54.4409 29C54.8009 28.4667 55.2676 28.0533 55.8409 27.76C56.4276 27.4533 57.0743 27.3 57.7809 27.3C58.6476 27.3 59.4276 27.52 60.1209 27.96C60.8276 28.4 61.3809 28.9933 61.7809 29.74C62.1809 30.4867 62.3809 31.3267 62.3809 32.26C62.3809 33.1933 62.1809 34.0333 61.7809 34.78C61.3809 35.5267 60.8276 36.12 60.1209 36.56C59.4276 36.9867 58.6476 37.2 57.7809 37.2ZM52.7809 40.98V27.5H54.5809V30L54.2409 32.3L54.5809 34.62V40.98H52.7809ZM57.4809 35.5C58.0809 35.5 58.6076 35.36 59.0609 35.08C59.5143 34.8 59.8743 34.42 60.1409 33.94C60.4076 33.4467 60.5409 32.88 60.5409 32.24C60.5409 31.6133 60.4076 31.0533 60.1409 30.56C59.8743 30.0667 59.5143 29.6867 59.0609 29.42C58.6076 29.14 58.0876 29 57.5009 29C56.9009 29 56.3743 29.14 55.9209 29.42C55.4676 29.6867 55.1143 30.0667 54.8609 30.56C54.6076 31.0533 54.4809 31.62 54.4809 32.26C54.4809 32.8867 54.6009 33.4467 54.8409 33.94C55.0943 34.42 55.4476 34.8 55.9009 35.08C56.3676 35.36 56.8943 35.5 57.4809 35.5ZM64.4216 37V27.5H66.2216V37H64.4216ZM66.2216 31.58L65.5416 31.28C65.5416 30.0667 65.8216 29.1 66.3816 28.38C66.9416 27.66 67.7482 27.3 68.8016 27.3C69.2816 27.3 69.7149 27.3867 70.1016 27.56C70.4882 27.72 70.8482 27.9933 71.1816 28.38L70.0016 29.6C69.8016 29.3867 69.5816 29.2333 69.3416 29.14C69.1016 29.0467 68.8216 29 68.5016 29C67.8349 29 67.2882 29.2133 66.8616 29.64C66.4349 30.0667 66.2216 30.7133 66.2216 31.58ZM76.1764 37.2C75.3097 37.2 74.5231 36.9867 73.8164 36.56C73.1097 36.12 72.5497 35.5267 72.1364 34.78C71.7364 34.0333 71.5364 33.1933 71.5364 32.26C71.5364 31.3267 71.7364 30.4867 72.1364 29.74C72.5497 28.9933 73.1031 28.4 73.7964 27.96C74.5031 27.52 75.2964 27.3 76.1764 27.3C76.8964 27.3 77.5364 27.4533 78.0964 27.76C78.6697 28.0533 79.1297 28.4667 79.4764 29C79.8231 29.52 80.0164 30.1267 80.0564 30.82V33.68C80.0164 34.36 79.8231 34.9667 79.4764 35.5C79.1431 36.0333 78.6897 36.4533 78.1164 36.76C77.5564 37.0533 76.9097 37.2 76.1764 37.2ZM76.4764 35.5C77.3697 35.5 78.0897 35.2 78.6364 34.6C79.1831 33.9867 79.4564 33.2067 79.4564 32.26C79.4564 31.6067 79.3297 31.04 79.0764 30.56C78.8364 30.0667 78.4897 29.6867 78.0364 29.42C77.5831 29.14 77.0564 29 76.4564 29C75.8564 29 75.3231 29.14 74.8564 29.42C74.4031 29.7 74.0431 30.0867 73.7764 30.58C73.5231 31.06 73.3964 31.6133 73.3964 32.24C73.3964 32.88 73.5231 33.4467 73.7764 33.94C74.0431 34.42 74.4097 34.8 74.8764 35.08C75.3431 35.36 75.8764 35.5 76.4764 35.5ZM79.3364 37V34.44L79.6764 32.12L79.3364 29.82V27.5H81.1564V37H79.3364ZM86.458 37L82.698 27.5H84.578L87.298 34.9H86.698L89.398 27.5H90.438L93.138 34.9H92.538L95.258 27.5H97.138L93.398 37H92.338L89.598 29.82H90.258L87.498 37H86.458ZM98.6017 37V27.5H100.402V37H98.6017ZM99.5017 25.6C99.1684 25.6 98.8951 25.4933 98.6817 25.28C98.4684 25.0533 98.3617 24.7733 98.3617 24.44C98.3617 24.12 98.4684 23.8533 98.6817 23.64C98.8951 23.4133 99.1684 23.3 99.5017 23.3C99.8351 23.3 100.108 23.4133 100.322 23.64C100.535 23.8533 100.642 24.12 100.642 24.44C100.642 24.7733 100.535 25.0533 100.322 25.28C100.108 25.4933 99.8351 25.6 99.5017 25.6ZM107.094 37.2C106.228 37.2 105.441 36.9867 104.734 36.56C104.028 36.12 103.468 35.5267 103.054 34.78C102.654 34.0333 102.454 33.1933 102.454 32.26C102.454 31.3267 102.654 30.4867 103.054 29.74C103.468 28.9933 104.021 28.4 104.714 27.96C105.421 27.52 106.214 27.3 107.094 27.3C107.814 27.3 108.454 27.4533 109.014 27.76C109.588 28.0533 110.048 28.4667 110.394 29C110.741 29.52 110.934 30.1267 110.974 30.82V33.68C110.934 34.36 110.741 34.9667 110.394 35.5C110.061 36.0333 109.608 36.4533 109.034 36.76C108.474 37.0533 107.828 37.2 107.094 37.2ZM107.394 35.5C108.288 35.5 109.008 35.2 109.554 34.6C110.101 33.9867 110.374 33.2067 110.374 32.26C110.374 31.6067 110.248 31.04 109.994 30.56C109.754 30.0667 109.408 29.6867 108.954 29.42C108.501 29.14 107.974 29 107.374 29C106.774 29 106.241 29.14 105.774 29.42C105.321 29.7 104.961 30.0867 104.694 30.58C104.441 31.06 104.314 31.6133 104.314 32.24C104.314 32.88 104.441 33.4467 104.694 33.94C104.961 34.42 105.328 34.8 105.794 35.08C106.261 35.36 106.794 35.5 107.394 35.5ZM110.254 37V34.44L110.594 32.12L110.254 29.82V27.5H112.074V37H110.254ZM114.795 39.2L116.035 36.82L116.675 36.66C116.608 36.8067 116.522 36.9267 116.415 37.02C116.322 37.1133 116.202 37.16 116.055 37.16C115.775 37.16 115.515 37.0467 115.275 36.82C115.048 36.58 114.935 36.2867 114.935 35.94C114.935 35.5533 115.062 35.2333 115.315 34.98C115.568 34.7133 115.888 34.58 116.275 34.58C116.622 34.58 116.928 34.7133 117.195 34.98C117.462 35.2333 117.595 35.5533 117.595 35.94C117.595 36.0867 117.562 36.2667 117.495 36.48C117.442 36.68 117.328 36.94 117.155 37.26L115.835 39.76L114.795 39.2ZM123.603 36.02L129.243 28.48H131.363L125.723 36.02H123.603ZM123.603 37V36.02L125.203 35.36H131.243V37H123.603ZM123.943 29.14V27.5H131.363V28.48L129.703 29.14H123.943ZM127.823 25.9C127.49 25.9 127.216 25.7933 127.003 25.58C126.79 25.3533 126.683 25.0733 126.683 24.74C126.683 24.42 126.79 24.1533 127.003 23.94C127.216 23.7133 127.49 23.6 127.823 23.6C128.156 23.6 128.43 23.7133 128.643 23.94C128.856 24.1533 128.963 24.42 128.963 24.74C128.963 25.0733 128.856 25.3533 128.643 25.58C128.43 25.7933 128.156 25.9 127.823 25.9ZM137.708 37.2C136.762 37.2 135.908 36.9867 135.148 36.56C134.388 36.12 133.788 35.5267 133.348 34.78C132.908 34.0333 132.688 33.1867 132.688 32.24C132.688 31.3067 132.902 30.4667 133.328 29.72C133.768 28.9733 134.355 28.3867 135.088 27.96C135.835 27.52 136.668 27.3 137.588 27.3C138.468 27.3 139.242 27.5 139.908 27.9C140.588 28.3 141.115 28.8533 141.488 29.56C141.875 30.2667 142.068 31.0667 142.068 31.96C142.068 32.0933 142.062 32.24 142.048 32.4C142.035 32.5467 142.008 32.72 141.968 32.92H133.948V31.42H141.008L140.348 32C140.348 31.36 140.235 30.82 140.008 30.38C139.782 29.9267 139.462 29.58 139.048 29.34C138.635 29.0867 138.135 28.96 137.548 28.96C136.935 28.96 136.395 29.0933 135.928 29.36C135.462 29.6267 135.102 30 134.848 30.48C134.595 30.96 134.468 31.5267 134.468 32.18C134.468 32.8467 134.602 33.4333 134.868 33.94C135.135 34.4333 135.515 34.82 136.008 35.1C136.502 35.3667 137.068 35.5 137.708 35.5C138.242 35.5 138.728 35.4067 139.168 35.22C139.622 35.0333 140.008 34.7533 140.328 34.38L141.488 35.56C141.035 36.0933 140.475 36.5 139.808 36.78C139.155 37.06 138.455 37.2 137.708 37.2ZM152.531 37.2C151.598 37.2 150.751 36.98 149.991 36.54C149.244 36.1 148.651 35.5067 148.211 34.76C147.784 34 147.571 33.16 147.571 32.24C147.571 31.3067 147.784 30.4667 148.211 29.72C148.651 28.9733 149.244 28.3867 149.991 27.96C150.751 27.52 151.598 27.3 152.531 27.3C153.264 27.3 153.944 27.44 154.571 27.72C155.198 27.9867 155.738 28.38 156.191 28.9L154.991 30.1C154.698 29.7533 154.338 29.4933 153.911 29.32C153.498 29.1333 153.038 29.04 152.531 29.04C151.931 29.04 151.398 29.18 150.931 29.46C150.464 29.7267 150.098 30.1 149.831 30.58C149.564 31.06 149.431 31.6133 149.431 32.24C149.431 32.8667 149.564 33.42 149.831 33.9C150.098 34.38 150.464 34.76 150.931 35.04C151.398 35.32 151.931 35.46 152.531 35.46C153.038 35.46 153.498 35.3733 153.911 35.2C154.338 35.0133 154.704 34.7467 155.011 34.4L156.191 35.6C155.751 36.1067 155.211 36.5 154.571 36.78C153.944 37.06 153.264 37.2 152.531 37.2ZM157.216 36.02L162.856 28.48H164.976L159.336 36.02H157.216ZM157.216 37V36.02L158.816 35.36H164.856V37H157.216ZM157.556 29.14V27.5H164.976V28.48L163.316 29.14H157.556ZM166.922 30.56L172.402 27.4V29.12L166.922 32.28V30.56ZM168.762 37V22.72H170.562V37H168.762ZM179.367 37.2C178.434 37.2 177.594 36.98 176.847 36.54C176.1 36.1 175.507 35.5067 175.067 34.76C174.627 34 174.407 33.1533 174.407 32.22C174.407 31.3 174.627 30.4733 175.067 29.74C175.507 28.9933 176.1 28.4 176.847 27.96C177.594 27.52 178.434 27.3 179.367 27.3C180.287 27.3 181.12 27.52 181.867 27.96C182.627 28.3867 183.227 28.9733 183.667 29.72C184.107 30.4667 184.327 31.3 184.327 32.22C184.327 33.1533 184.107 34 183.667 34.76C183.227 35.5067 182.627 36.1 181.867 36.54C181.12 36.98 180.287 37.2 179.367 37.2ZM179.367 35.46C179.967 35.46 180.5 35.32 180.967 35.04C181.434 34.76 181.8 34.38 182.067 33.9C182.334 33.4067 182.467 32.8467 182.467 32.22C182.467 31.6067 182.327 31.06 182.047 30.58C181.78 30.1 181.414 29.7267 180.947 29.46C180.494 29.18 179.967 29.04 179.367 29.04C178.767 29.04 178.234 29.18 177.767 29.46C177.3 29.7267 176.934 30.1 176.667 30.58C176.4 31.06 176.267 31.6067 176.267 32.22C176.267 32.8467 176.4 33.4067 176.667 33.9C176.934 34.38 177.3 34.76 177.767 35.04C178.234 35.32 178.767 35.46 179.367 35.46ZM188.802 37L185.042 27.5H186.922L189.642 34.9H189.042L191.742 27.5H192.782L195.482 34.9H194.882L197.602 27.5H199.482L195.742 37H194.682L191.942 29.82H192.602L189.842 37H188.802ZM200.945 37V27.5H202.745V37H200.945ZM201.845 25.6C201.512 25.6 201.239 25.4933 201.025 25.28C200.812 25.0533 200.705 24.7733 200.705 24.44C200.705 24.12 200.812 23.8533 201.025 23.64C201.239 23.4133 201.512 23.3 201.845 23.3C202.179 23.3 202.452 23.4133 202.665 23.64C202.879 23.8533 202.985 24.12 202.985 24.44C202.985 24.7733 202.879 25.0533 202.665 25.28C202.452 25.4933 202.179 25.6 201.845 25.6ZM209.798 37.2C208.851 37.2 207.998 36.9867 207.238 36.56C206.478 36.12 205.878 35.5267 205.438 34.78C204.998 34.0333 204.778 33.1867 204.778 32.24C204.778 31.3067 204.991 30.4667 205.418 29.72C205.858 28.9733 206.445 28.3867 207.178 27.96C207.925 27.52 208.758 27.3 209.678 27.3C210.558 27.3 211.331 27.5 211.998 27.9C212.678 28.3 213.205 28.8533 213.578 29.56C213.965 30.2667 214.158 31.0667 214.158 31.96C214.158 32.0933 214.151 32.24 214.138 32.4C214.125 32.5467 214.098 32.72 214.058 32.92H206.038V31.42H213.098L212.438 32C212.438 31.36 212.325 30.82 212.098 30.38C211.871 29.9267 211.551 29.58 211.138 29.34C210.725 29.0867 210.225 28.96 209.638 28.96C209.025 28.96 208.485 29.0933 208.018 29.36C207.551 29.6267 207.191 30 206.938 30.48C206.685 30.96 206.558 31.5267 206.558 32.18C206.558 32.8467 206.691 33.4333 206.958 33.94C207.225 34.4333 207.605 34.82 208.098 35.1C208.591 35.3667 209.158 35.5 209.798 35.5C210.331 35.5 210.818 35.4067 211.258 35.22C211.711 35.0333 212.098 34.7533 212.418 34.38L213.578 35.56C213.125 36.0933 212.565 36.5 211.898 36.78C211.245 37.06 210.545 37.2 209.798 37.2ZM222.201 37L217.761 32.14L222.161 27.5H224.341L219.441 32.62L219.521 31.58L224.521 37H222.201ZM216.121 37V22.72H217.921V37H216.121ZM233.262 37.2C232.729 37.2 232.222 37.1333 231.742 37C231.275 36.8533 230.842 36.6533 230.442 36.4C230.042 36.1333 229.695 35.82 229.402 35.46L230.562 34.3C230.909 34.7267 231.309 35.0467 231.762 35.26C232.215 35.46 232.722 35.56 233.282 35.56C233.842 35.56 234.275 35.4667 234.582 35.28C234.889 35.08 235.042 34.8067 235.042 34.46C235.042 34.1133 234.915 33.8467 234.662 33.66C234.422 33.46 234.109 33.3 233.722 33.18C233.335 33.0467 232.922 32.92 232.482 32.8C232.055 32.6667 231.649 32.5 231.262 32.3C230.875 32.1 230.555 31.8267 230.302 31.48C230.062 31.1333 229.942 30.6733 229.942 30.1C229.942 29.5267 230.082 29.0333 230.362 28.62C230.642 28.1933 231.029 27.8667 231.522 27.64C232.029 27.4133 232.635 27.3 233.342 27.3C234.089 27.3 234.749 27.4333 235.322 27.7C235.909 27.9533 236.389 28.34 236.762 28.86L235.602 30.02C235.335 29.6733 235.002 29.4067 234.602 29.22C234.215 29.0333 233.775 28.94 233.282 28.94C232.762 28.94 232.362 29.0333 232.082 29.22C231.815 29.3933 231.682 29.64 231.682 29.96C231.682 30.28 231.802 30.5267 232.042 30.7C232.282 30.8733 232.595 31.02 232.982 31.14C233.382 31.26 233.795 31.3867 234.222 31.52C234.649 31.64 235.055 31.8067 235.442 32.02C235.829 32.2333 236.142 32.52 236.382 32.88C236.635 33.24 236.762 33.7133 236.762 34.3C236.762 35.1933 236.442 35.9 235.802 36.42C235.175 36.94 234.329 37.2 233.262 37.2ZM240.237 37V23.52H242.037V37H240.237ZM237.897 29.14V27.5H244.377V29.14H237.897ZM249.887 37.2C249.021 37.2 248.234 36.9867 247.527 36.56C246.821 36.12 246.261 35.5267 245.847 34.78C245.447 34.0333 245.247 33.1933 245.247 32.26C245.247 31.3267 245.447 30.4867 245.847 29.74C246.261 28.9933 246.814 28.4 247.507 27.96C248.214 27.52 249.007 27.3 249.887 27.3C250.607 27.3 251.247 27.4533 251.807 27.76C252.381 28.0533 252.841 28.4667 253.187 29C253.534 29.52 253.727 30.1267 253.767 30.82V33.68C253.727 34.36 253.534 34.9667 253.187 35.5C252.854 36.0333 252.401 36.4533 251.827 36.76C251.267 37.0533 250.621 37.2 249.887 37.2ZM250.187 35.5C251.081 35.5 251.801 35.2 252.347 34.6C252.894 33.9867 253.167 33.2067 253.167 32.26C253.167 31.6067 253.041 31.04 252.787 30.56C252.547 30.0667 252.201 29.6867 251.747 29.42C251.294 29.14 250.767 29 250.167 29C249.567 29 249.034 29.14 248.567 29.42C248.114 29.7 247.754 30.0867 247.487 30.58C247.234 31.06 247.107 31.6133 247.107 32.24C247.107 32.88 247.234 33.4467 247.487 33.94C247.754 34.42 248.121 34.8 248.587 35.08C249.054 35.36 249.587 35.5 250.187 35.5ZM253.047 37V34.44L253.387 32.12L253.047 29.82V27.5H254.867V37H253.047ZM256.288 41.18C255.675 41.18 255.161 41.08 254.748 40.88C254.321 40.68 253.941 40.3933 253.608 40.02L254.768 38.84C254.955 39.0667 255.161 39.2333 255.388 39.34C255.601 39.4467 255.861 39.5 256.168 39.5C256.568 39.5 256.915 39.3733 257.208 39.12C257.501 38.88 257.648 38.5133 257.648 38.02V27.5H259.448V38C259.448 38.6933 259.301 39.2733 259.008 39.74C258.715 40.2067 258.328 40.56 257.848 40.8C257.368 41.0533 256.848 41.18 256.288 41.18ZM258.568 25.6C258.248 25.6 257.981 25.4933 257.768 25.28C257.555 25.0533 257.448 24.7733 257.448 24.44C257.448 24.12 257.555 23.8533 257.768 23.64C257.981 23.4133 258.248 23.3 258.568 23.3C258.901 23.3 259.175 23.4133 259.388 23.64C259.601 23.8533 259.708 24.12 259.708 24.44C259.708 24.7733 259.601 25.0533 259.388 25.28C259.175 25.4933 258.901 25.6 258.568 25.6ZM266.497 37.2C265.551 37.2 264.697 36.9867 263.937 36.56C263.177 36.12 262.577 35.5267 262.137 34.78C261.697 34.0333 261.477 33.1867 261.477 32.24C261.477 31.3067 261.691 30.4667 262.117 29.72C262.557 28.9733 263.144 28.3867 263.877 27.96C264.624 27.52 265.457 27.3 266.377 27.3C267.257 27.3 268.031 27.5 268.697 27.9C269.377 28.3 269.904 28.8533 270.277 29.56C270.664 30.2667 270.857 31.0667 270.857 31.96C270.857 32.0933 270.851 32.24 270.837 32.4C270.824 32.5467 270.797 32.72 270.757 32.92H262.737V31.42H269.797L269.137 32C269.137 31.36 269.024 30.82 268.797 30.38C268.571 29.9267 268.251 29.58 267.837 29.34C267.424 29.0867 266.924 28.96 266.337 28.96C265.724 28.96 265.184 29.0933 264.717 29.36C264.251 29.6267 263.891 30 263.637 30.48C263.384 30.96 263.257 31.5267 263.257 32.18C263.257 32.8467 263.391 33.4333 263.657 33.94C263.924 34.4333 264.304 34.82 264.797 35.1C265.291 35.3667 265.857 35.5 266.497 35.5C267.031 35.5 267.517 35.4067 267.957 35.22C268.411 35.0333 268.797 34.7533 269.117 34.38L270.277 35.56C269.824 36.0933 269.264 36.5 268.597 36.78C267.944 37.06 267.244 37.2 266.497 37.2ZM280 37.2C279.467 37.2 278.96 37.1333 278.48 37C278.013 36.8533 277.58 36.6533 277.18 36.4C276.78 36.1333 276.433 35.82 276.14 35.46L277.3 34.3C277.647 34.7267 278.047 35.0467 278.5 35.26C278.953 35.46 279.46 35.56 280.02 35.56C280.58 35.56 281.013 35.4667 281.32 35.28C281.627 35.08 281.78 34.8067 281.78 34.46C281.78 34.1133 281.653 33.8467 281.4 33.66C281.16 33.46 280.847 33.3 280.46 33.18C280.073 33.0467 279.66 32.92 279.22 32.8C278.793 32.6667 278.387 32.5 278 32.3C277.613 32.1 277.293 31.8267 277.04 31.48C276.8 31.1333 276.68 30.6733 276.68 30.1C276.68 29.5267 276.82 29.0333 277.1 28.62C277.38 28.1933 277.767 27.8667 278.26 27.64C278.767 27.4133 279.373 27.3 280.08 27.3C280.827 27.3 281.487 27.4333 282.06 27.7C282.647 27.9533 283.127 28.34 283.5 28.86L282.34 30.02C282.073 29.6733 281.74 29.4067 281.34 29.22C280.953 29.0333 280.513 28.94 280.02 28.94C279.5 28.94 279.1 29.0333 278.82 29.22C278.553 29.3933 278.42 29.64 278.42 29.96C278.42 30.28 278.54 30.5267 278.78 30.7C279.02 30.8733 279.333 31.02 279.72 31.14C280.12 31.26 280.533 31.3867 280.96 31.52C281.387 31.64 281.793 31.8067 282.18 32.02C282.567 32.2333 282.88 32.52 283.12 32.88C283.373 33.24 283.5 33.7133 283.5 34.3C283.5 35.1933 283.18 35.9 282.54 36.42C281.913 36.94 281.067 37.2 280 37.2ZM285.535 37V27.5H287.335V37H285.535ZM286.435 25.6C286.102 25.6 285.829 25.4933 285.615 25.28C285.402 25.0533 285.295 24.7733 285.295 24.44C285.295 24.12 285.402 23.8533 285.615 23.64C285.829 23.4133 286.102 23.3 286.435 23.3C286.769 23.3 287.042 23.4133 287.255 23.64C287.469 23.8533 287.575 24.12 287.575 24.44C287.575 24.7733 287.469 25.0533 287.255 25.28C287.042 25.4933 286.769 25.6 286.435 25.6ZM294.388 37.2C293.441 37.2 292.588 36.9867 291.828 36.56C291.068 36.12 290.468 35.5267 290.028 34.78C289.588 34.0333 289.368 33.1867 289.368 32.24C289.368 31.3067 289.581 30.4667 290.008 29.72C290.448 28.9733 291.035 28.3867 291.768 27.96C292.515 27.52 293.348 27.3 294.268 27.3C295.148 27.3 295.921 27.5 296.588 27.9C297.268 28.3 297.795 28.8533 298.168 29.56C298.555 30.2667 298.748 31.0667 298.748 31.96C298.748 32.0933 298.741 32.24 298.728 32.4C298.715 32.5467 298.688 32.72 298.648 32.92H290.628V31.42H297.688L297.028 32C297.028 31.36 296.915 30.82 296.688 30.38C296.461 29.9267 296.141 29.58 295.728 29.34C295.315 29.0867 294.815 28.96 294.228 28.96C293.615 28.96 293.075 29.0933 292.608 29.36C292.141 29.6267 291.781 30 291.528 30.48C291.275 30.96 291.148 31.5267 291.148 32.18C291.148 32.8467 291.281 33.4333 291.548 33.94C291.815 34.4333 292.195 34.82 292.688 35.1C293.181 35.3667 293.748 35.5 294.388 35.5C294.921 35.5 295.408 35.4067 295.848 35.22C296.301 35.0333 296.688 34.7533 297.008 34.38L298.168 35.56C297.715 36.0933 297.155 36.5 296.488 36.78C295.835 37.06 295.135 37.2 294.388 37.2ZM295.488 40.98C294.941 40.98 294.455 40.84 294.028 40.56C293.615 40.2933 293.408 39.84 293.408 39.2C293.408 38.6667 293.575 38.16 293.908 37.68C294.255 37.2 294.755 36.78 295.408 36.42L296.388 36.8C295.908 37.1067 295.521 37.4333 295.228 37.78C294.948 38.14 294.808 38.5267 294.808 38.94C294.808 39.2067 294.881 39.4133 295.028 39.56C295.188 39.72 295.408 39.8 295.688 39.8C295.888 39.8 296.061 39.7667 296.208 39.7C296.368 39.6333 296.508 39.5667 296.628 39.5L297.108 40.5C296.921 40.62 296.695 40.7267 296.428 40.82C296.175 40.9267 295.861 40.98 295.488 40.98ZM308.891 37.2C308.011 37.2 307.224 36.9867 306.531 36.56C305.837 36.12 305.284 35.5267 304.871 34.78C304.471 34.0333 304.271 33.1933 304.271 32.26C304.271 31.3267 304.471 30.4867 304.871 29.74C305.284 28.9933 305.837 28.4 306.531 27.96C307.224 27.52 308.011 27.3 308.891 27.3C309.597 27.3 310.237 27.4533 310.811 27.76C311.384 28.0533 311.844 28.4667 312.191 29C312.551 29.52 312.751 30.1267 312.791 30.82V33.68C312.751 34.36 312.557 34.9667 312.211 35.5C311.864 36.0333 311.404 36.4533 310.831 36.76C310.257 37.0533 309.611 37.2 308.891 37.2ZM309.191 35.5C309.791 35.5 310.311 35.36 310.751 35.08C311.204 34.8 311.557 34.42 311.811 33.94C312.064 33.4467 312.191 32.8867 312.191 32.26C312.191 31.6067 312.057 31.04 311.791 30.56C311.537 30.08 311.184 29.7 310.731 29.42C310.291 29.14 309.771 29 309.171 29C308.571 29 308.044 29.14 307.591 29.42C307.137 29.7 306.777 30.0867 306.511 30.58C306.257 31.06 306.131 31.6133 306.131 32.24C306.131 32.88 306.257 33.4467 306.511 33.94C306.777 34.42 307.137 34.8 307.591 35.08C308.057 35.36 308.591 35.5 309.191 35.5ZM313.891 37H312.071V34.44L312.411 32.12L312.071 29.82V22.72H313.891V37ZM316.511 37V22.72H318.311V37H316.511ZM324.985 37.2C324.118 37.2 323.332 36.9867 322.625 36.56C321.918 36.12 321.358 35.5267 320.945 34.78C320.545 34.0333 320.345 33.1933 320.345 32.26C320.345 31.3267 320.545 30.4867 320.945 29.74C321.358 28.9933 321.912 28.4 322.605 27.96C323.312 27.52 324.105 27.3 324.985 27.3C325.705 27.3 326.345 27.4533 326.905 27.76C327.478 28.0533 327.938 28.4667 328.285 29C328.632 29.52 328.825 30.1267 328.865 30.82V33.68C328.825 34.36 328.632 34.9667 328.285 35.5C327.952 36.0333 327.498 36.4533 326.925 36.76C326.365 37.0533 325.718 37.2 324.985 37.2ZM325.285 35.5C326.178 35.5 326.898 35.2 327.445 34.6C327.992 33.9867 328.265 33.2067 328.265 32.26C328.265 31.6067 328.138 31.04 327.885 30.56C327.645 30.0667 327.298 29.6867 326.845 29.42C326.392 29.14 325.865 29 325.265 29C324.665 29 324.132 29.14 323.665 29.42C323.212 29.7 322.852 30.0867 322.585 30.58C322.332 31.06 322.205 31.6133 322.205 32.24C322.205 32.88 322.332 33.4467 322.585 33.94C322.852 34.42 323.218 34.8 323.685 35.08C324.152 35.36 324.685 35.5 325.285 35.5ZM328.145 37V34.44L328.485 32.12L328.145 29.82V27.5H329.965V37H328.145ZM340.766 37.2C339.886 37.2 339.099 36.9867 338.406 36.56C337.712 36.12 337.159 35.5267 336.746 34.78C336.346 34.0333 336.146 33.1933 336.146 32.26C336.146 31.3267 336.346 30.4867 336.746 29.74C337.159 28.9933 337.712 28.4 338.406 27.96C339.099 27.52 339.886 27.3 340.766 27.3C341.472 27.3 342.112 27.4533 342.686 27.76C343.259 28.0533 343.719 28.4667 344.066 29C344.426 29.52 344.626 30.1267 344.666 30.82V33.68C344.626 34.36 344.432 34.9667 344.086 35.5C343.739 36.0333 343.279 36.4533 342.706 36.76C342.132 37.0533 341.486 37.2 340.766 37.2ZM341.066 35.5C341.666 35.5 342.186 35.36 342.626 35.08C343.079 34.8 343.432 34.42 343.686 33.94C343.939 33.4467 344.066 32.8867 344.066 32.26C344.066 31.6067 343.932 31.04 343.666 30.56C343.412 30.08 343.059 29.7 342.606 29.42C342.166 29.14 341.646 29 341.046 29C340.446 29 339.919 29.14 339.466 29.42C339.012 29.7 338.652 30.0867 338.386 30.58C338.132 31.06 338.006 31.6133 338.006 32.24C338.006 32.88 338.132 33.4467 338.386 33.94C338.652 34.42 339.012 34.8 339.466 35.08C339.932 35.36 340.466 35.5 341.066 35.5ZM345.766 37H343.946V34.44L344.286 32.12L343.946 29.82V22.72H345.766V37ZM348.386 37V27.5H350.186V37H348.386ZM350.186 31.58L349.506 31.28C349.506 30.0667 349.786 29.1 350.346 28.38C350.906 27.66 351.713 27.3 352.766 27.3C353.246 27.3 353.68 27.3867 354.066 27.56C354.453 27.72 354.813 27.9933 355.146 28.38L353.966 29.6C353.766 29.3867 353.546 29.2333 353.306 29.14C353.066 29.0467 352.786 29 352.466 29C351.8 29 351.253 29.2133 350.826 29.64C350.4 30.0667 350.186 30.7133 350.186 31.58ZM360.234 37.2C359.46 37.2 358.76 37.0267 358.134 36.68C357.52 36.32 357.04 35.8267 356.694 35.2C356.347 34.5733 356.174 33.8467 356.174 33.02V27.5H357.974V32.94C357.974 33.46 358.06 33.9133 358.234 34.3C358.42 34.6733 358.687 34.96 359.034 35.16C359.38 35.36 359.787 35.46 360.254 35.46C360.96 35.46 361.514 35.24 361.914 34.8C362.314 34.3467 362.514 33.7267 362.514 32.94V27.5H364.314V33.02C364.314 33.8467 364.14 34.5733 363.794 35.2C363.447 35.8267 362.967 36.32 362.354 36.68C361.754 37.0267 361.047 37.2 360.234 37.2ZM370.666 41.18C369.693 41.18 368.826 41 368.066 40.64C367.32 40.28 366.72 39.7733 366.266 39.12L367.426 37.94C367.813 38.4333 368.273 38.8067 368.806 39.06C369.34 39.3267 369.973 39.46 370.706 39.46C371.68 39.46 372.446 39.2 373.006 38.68C373.58 38.1733 373.866 37.4867 373.866 36.62V34.26L374.186 32.12L373.866 30V27.5H375.666V36.62C375.666 37.5267 375.453 38.32 375.026 39C374.613 39.68 374.026 40.2133 373.266 40.6C372.52 40.9867 371.653 41.18 370.666 41.18ZM370.666 36.84C369.8 36.84 369.02 36.6333 368.326 36.22C367.646 35.8067 367.106 35.24 366.706 34.52C366.306 33.7867 366.106 32.9667 366.106 32.06C366.106 31.1533 366.306 30.3467 366.706 29.64C367.106 28.92 367.646 28.3533 368.326 27.94C369.02 27.5133 369.8 27.3 370.666 27.3C371.413 27.3 372.073 27.4467 372.646 27.74C373.22 28.0333 373.673 28.4467 374.006 28.98C374.353 29.5 374.54 30.1133 374.566 30.82V33.34C374.526 34.0333 374.333 34.6467 373.986 35.18C373.653 35.7 373.2 36.1067 372.626 36.4C372.053 36.6933 371.4 36.84 370.666 36.84ZM371.026 35.14C371.613 35.14 372.126 35.0133 372.566 34.76C373.02 34.5067 373.366 34.1533 373.606 33.7C373.846 33.2333 373.966 32.6933 373.966 32.08C373.966 31.4667 373.84 30.9333 373.586 30.48C373.346 30.0133 373.006 29.6533 372.566 29.4C372.126 29.1333 371.606 29 371.006 29C370.406 29 369.88 29.1333 369.426 29.4C368.973 29.6533 368.613 30.0133 368.346 30.48C368.093 30.9333 367.966 31.46 367.966 32.06C367.966 32.66 368.093 33.1933 368.346 33.66C368.613 34.1267 368.973 34.4933 369.426 34.76C369.893 35.0133 370.426 35.14 371.026 35.14ZM378.328 37V27.5H380.128V37H378.328ZM379.228 25.6C378.895 25.6 378.622 25.4933 378.408 25.28C378.195 25.0533 378.088 24.7733 378.088 24.44C378.088 24.12 378.195 23.8533 378.408 23.64C378.622 23.4133 378.895 23.3 379.228 23.3C379.562 23.3 379.835 23.4133 380.048 23.64C380.262 23.8533 380.368 24.12 380.368 24.44C380.368 24.7733 380.262 25.0533 380.048 25.28C379.835 25.4933 379.562 25.6 379.228 25.6ZM387.181 37.2C386.234 37.2 385.381 36.9867 384.621 36.56C383.861 36.12 383.261 35.5267 382.821 34.78C382.381 34.0333 382.161 33.1867 382.161 32.24C382.161 31.3067 382.374 30.4667 382.801 29.72C383.241 28.9733 383.828 28.3867 384.561 27.96C385.308 27.52 386.141 27.3 387.061 27.3C387.941 27.3 388.714 27.5 389.381 27.9C390.061 28.3 390.588 28.8533 390.961 29.56C391.348 30.2667 391.541 31.0667 391.541 31.96C391.541 32.0933 391.534 32.24 391.521 32.4C391.508 32.5467 391.481 32.72 391.441 32.92H383.421V31.42H390.481L389.821 32C389.821 31.36 389.708 30.82 389.481 30.38C389.254 29.9267 388.934 29.58 388.521 29.34C388.108 29.0867 387.608 28.96 387.021 28.96C386.408 28.96 385.868 29.0933 385.401 29.36C384.934 29.6267 384.574 30 384.321 30.48C384.068 30.96 383.941 31.5267 383.941 32.18C383.941 32.8467 384.074 33.4333 384.341 33.94C384.608 34.4333 384.988 34.82 385.481 35.1C385.974 35.3667 386.541 35.5 387.181 35.5C387.714 35.5 388.201 35.4067 388.641 35.22C389.094 35.0333 389.481 34.7533 389.801 34.38L390.961 35.56C390.508 36.0933 389.948 36.5 389.281 36.78C388.628 37.06 387.928 37.2 387.181 37.2ZM397.444 41.18C396.47 41.18 395.604 41 394.844 40.64C394.097 40.28 393.497 39.7733 393.044 39.12L394.204 37.94C394.59 38.4333 395.05 38.8067 395.584 39.06C396.117 39.3267 396.75 39.46 397.484 39.46C398.457 39.46 399.224 39.2 399.784 38.68C400.357 38.1733 400.644 37.4867 400.644 36.62V34.26L400.964 32.12L400.644 30V27.5H402.444V36.62C402.444 37.5267 402.23 38.32 401.804 39C401.39 39.68 400.804 40.2133 400.044 40.6C399.297 40.9867 398.43 41.18 397.444 41.18ZM397.444 36.84C396.577 36.84 395.797 36.6333 395.104 36.22C394.424 35.8067 393.884 35.24 393.484 34.52C393.084 33.7867 392.884 32.9667 392.884 32.06C392.884 31.1533 393.084 30.3467 393.484 29.64C393.884 28.92 394.424 28.3533 395.104 27.94C395.797 27.5133 396.577 27.3 397.444 27.3C398.19 27.3 398.85 27.4467 399.424 27.74C399.997 28.0333 400.45 28.4467 400.784 28.98C401.13 29.5 401.317 30.1133 401.344 30.82V33.34C401.304 34.0333 401.11 34.6467 400.764 35.18C400.43 35.7 399.977 36.1067 399.404 36.4C398.83 36.6933 398.177 36.84 397.444 36.84ZM397.804 35.14C398.39 35.14 398.904 35.0133 399.344 34.76C399.797 34.5067 400.144 34.1533 400.384 33.7C400.624 33.2333 400.744 32.6933 400.744 32.08C400.744 31.4667 400.617 30.9333 400.364 30.48C400.124 30.0133 399.784 29.6533 399.344 29.4C398.904 29.1333 398.384 29 397.784 29C397.184 29 396.657 29.1333 396.204 29.4C395.75 29.6533 395.39 30.0133 395.124 30.48C394.87 30.9333 394.744 31.46 394.744 32.06C394.744 32.66 394.87 33.1933 395.124 33.66C395.39 34.1267 395.75 34.4933 396.204 34.76C396.67 35.0133 397.204 35.14 397.804 35.14ZM409.426 37.2C408.492 37.2 407.652 36.98 406.906 36.54C406.159 36.1 405.566 35.5067 405.126 34.76C404.686 34 404.466 33.1533 404.466 32.22C404.466 31.3 404.686 30.4733 405.126 29.74C405.566 28.9933 406.159 28.4 406.906 27.96C407.652 27.52 408.492 27.3 409.426 27.3C410.346 27.3 411.179 27.52 411.926 27.96C412.686 28.3867 413.286 28.9733 413.726 29.72C414.166 30.4667 414.386 31.3 414.386 32.22C414.386 33.1533 414.166 34 413.726 34.76C413.286 35.5067 412.686 36.1 411.926 36.54C411.179 36.98 410.346 37.2 409.426 37.2ZM409.426 35.46C410.026 35.46 410.559 35.32 411.026 35.04C411.492 34.76 411.859 34.38 412.126 33.9C412.392 33.4067 412.526 32.8467 412.526 32.22C412.526 31.6067 412.386 31.06 412.106 30.58C411.839 30.1 411.472 29.7267 411.006 29.46C410.552 29.18 410.026 29.04 409.426 29.04C408.826 29.04 408.292 29.18 407.826 29.46C407.359 29.7267 406.992 30.1 406.726 30.58C406.459 31.06 406.326 31.6067 406.326 32.22C406.326 32.8467 406.459 33.4067 406.726 33.9C406.992 34.38 407.359 34.76 407.826 35.04C408.292 35.32 408.826 35.46 409.426 35.46ZM424.914 37.2C423.981 37.2 423.134 36.98 422.374 36.54C421.627 36.1 421.034 35.5067 420.594 34.76C420.167 34 419.954 33.16 419.954 32.24C419.954 31.3067 420.167 30.4667 420.594 29.72C421.034 28.9733 421.627 28.3867 422.374 27.96C423.134 27.52 423.981 27.3 424.914 27.3C425.647 27.3 426.327 27.44 426.954 27.72C427.581 27.9867 428.121 28.38 428.574 28.9L427.374 30.1C427.081 29.7533 426.721 29.4933 426.294 29.32C425.881 29.1333 425.421 29.04 424.914 29.04C424.314 29.04 423.781 29.18 423.314 29.46C422.847 29.7267 422.481 30.1 422.214 30.58C421.947 31.06 421.814 31.6133 421.814 32.24C421.814 32.8667 421.947 33.42 422.214 33.9C422.481 34.38 422.847 34.76 423.314 35.04C423.781 35.32 424.314 35.46 424.914 35.46C425.421 35.46 425.881 35.3733 426.294 35.2C426.721 35.0133 427.087 34.7467 427.394 34.4L428.574 35.6C428.134 36.1067 427.594 36.5 426.954 36.78C426.327 37.06 425.647 37.2 424.914 37.2ZM429.599 36.02L435.239 28.48H437.359L431.719 36.02H429.599ZM429.599 37V36.02L431.199 35.36H437.239V37H429.599ZM429.939 29.14V27.5H437.359V28.48L435.699 29.14H429.939ZM439.304 30.56L444.784 27.4V29.12L439.304 32.28V30.56ZM441.144 37V22.72H442.944V37H441.144ZM451.75 37.2C450.817 37.2 449.977 36.98 449.23 36.54C448.483 36.1 447.89 35.5067 447.45 34.76C447.01 34 446.79 33.1533 446.79 32.22C446.79 31.3 447.01 30.4733 447.45 29.74C447.89 28.9933 448.483 28.4 449.23 27.96C449.977 27.52 450.817 27.3 451.75 27.3C452.67 27.3 453.503 27.52 454.25 27.96C455.01 28.3867 455.61 28.9733 456.05 29.72C456.49 30.4667 456.71 31.3 456.71 32.22C456.71 33.1533 456.49 34 456.05 34.76C455.61 35.5067 455.01 36.1 454.25 36.54C453.503 36.98 452.67 37.2 451.75 37.2ZM451.75 35.46C452.35 35.46 452.883 35.32 453.35 35.04C453.817 34.76 454.183 34.38 454.45 33.9C454.717 33.4067 454.85 32.8467 454.85 32.22C454.85 31.6067 454.71 31.06 454.43 30.58C454.163 30.1 453.797 29.7267 453.33 29.46C452.877 29.18 452.35 29.04 451.75 29.04C451.15 29.04 450.617 29.18 450.15 29.46C449.683 29.7267 449.317 30.1 449.05 30.58C448.783 31.06 448.65 31.6067 448.65 32.22C448.65 32.8467 448.783 33.4067 449.05 33.9C449.317 34.38 449.683 34.76 450.15 35.04C450.617 35.32 451.15 35.46 451.75 35.46ZM461.185 37L457.425 27.5H459.305L462.025 34.9H461.425L464.125 27.5H465.165L467.865 34.9H467.265L469.985 27.5H471.865L468.125 37H467.065L464.325 29.82H464.985L462.225 37H461.185ZM473.328 37V27.5H475.128V37H473.328ZM474.228 25.6C473.895 25.6 473.622 25.4933 473.408 25.28C473.195 25.0533 473.088 24.7733 473.088 24.44C473.088 24.12 473.195 23.8533 473.408 23.64C473.622 23.4133 473.895 23.3 474.228 23.3C474.562 23.3 474.835 23.4133 475.048 23.64C475.262 23.8533 475.368 24.12 475.368 24.44C475.368 24.7733 475.262 25.0533 475.048 25.28C474.835 25.4933 474.562 25.6 474.228 25.6ZM482.181 37.2C481.234 37.2 480.381 36.9867 479.621 36.56C478.861 36.12 478.261 35.5267 477.821 34.78C477.381 34.0333 477.161 33.1867 477.161 32.24C477.161 31.3067 477.374 30.4667 477.801 29.72C478.241 28.9733 478.828 28.3867 479.561 27.96C480.308 27.52 481.141 27.3 482.061 27.3C482.941 27.3 483.714 27.5 484.381 27.9C485.061 28.3 485.588 28.8533 485.961 29.56C486.348 30.2667 486.541 31.0667 486.541 31.96C486.541 32.0933 486.534 32.24 486.521 32.4C486.508 32.5467 486.481 32.72 486.441 32.92H478.421V31.42H485.481L484.821 32C484.821 31.36 484.708 30.82 484.481 30.38C484.254 29.9267 483.934 29.58 483.521 29.34C483.108 29.0867 482.608 28.96 482.021 28.96C481.408 28.96 480.868 29.0933 480.401 29.36C479.934 29.6267 479.574 30 479.321 30.48C479.068 30.96 478.941 31.5267 478.941 32.18C478.941 32.8467 479.074 33.4333 479.341 33.94C479.608 34.4333 479.988 34.82 480.481 35.1C480.974 35.3667 481.541 35.5 482.181 35.5C482.714 35.5 483.201 35.4067 483.641 35.22C484.094 35.0333 484.481 34.7533 484.801 34.38L485.961 35.56C485.508 36.0933 484.948 36.5 484.281 36.78C483.628 37.06 482.928 37.2 482.181 37.2ZM494.584 37L490.144 32.14L494.544 27.5H496.724L491.824 32.62L491.904 31.58L496.904 37H494.584ZM488.504 37V22.72H490.304V37H488.504ZM501.958 37.2C501.091 37.2 500.304 36.9867 499.598 36.56C498.891 36.12 498.331 35.5267 497.918 34.78C497.518 34.0333 497.318 33.1933 497.318 32.26C497.318 31.3267 497.518 30.4867 497.918 29.74C498.331 28.9933 498.884 28.4 499.578 27.96C500.284 27.52 501.078 27.3 501.958 27.3C502.678 27.3 503.318 27.4533 503.878 27.76C504.451 28.0533 504.911 28.4667 505.258 29C505.604 29.52 505.798 30.1267 505.838 30.82V33.68C505.798 34.36 505.604 34.9667 505.258 35.5C504.924 36.0333 504.471 36.4533 503.898 36.76C503.338 37.0533 502.691 37.2 501.958 37.2ZM502.258 35.5C503.151 35.5 503.871 35.2 504.418 34.6C504.964 33.9867 505.238 33.2067 505.238 32.26C505.238 31.6067 505.111 31.04 504.858 30.56C504.618 30.0667 504.271 29.6867 503.818 29.42C503.364 29.14 502.838 29 502.238 29C501.638 29 501.104 29.14 500.638 29.42C500.184 29.7 499.824 30.0867 499.558 30.58C499.304 31.06 499.178 31.6133 499.178 32.24C499.178 32.88 499.304 33.4467 499.558 33.94C499.824 34.42 500.191 34.8 500.658 35.08C501.124 35.36 501.658 35.5 502.258 35.5ZM505.118 37V34.44L505.458 32.12L505.118 29.82V27.5H506.938V37H505.118ZM20.32 62.2C19.6 62.2 18.9467 62.0533 18.36 61.76C17.7867 61.4533 17.3267 61.0333 16.98 60.5C16.6333 59.9667 16.44 59.36 16.4 58.68V55.82C16.44 55.1267 16.6333 54.52 16.98 54C17.34 53.4667 17.8067 53.0533 18.38 52.76C18.9667 52.4533 19.6133 52.3 20.32 52.3C21.1867 52.3 21.9667 52.52 22.66 52.96C23.3667 53.4 23.92 53.9933 24.32 54.74C24.72 55.4867 24.92 56.3267 24.92 57.26C24.92 58.1933 24.72 59.0333 24.32 59.78C23.92 60.5267 23.3667 61.12 22.66 61.56C21.9667 61.9867 21.1867 62.2 20.32 62.2ZM15.32 62V47.72H17.12V54.82L16.78 57.12L17.12 59.44V62H15.32ZM20.02 60.5C20.62 60.5 21.1467 60.36 21.6 60.08C22.0533 59.8 22.4133 59.42 22.68 58.94C22.9467 58.4467 23.08 57.88 23.08 57.24C23.08 56.6133 22.9467 56.0533 22.68 55.56C22.4133 55.0667 22.0533 54.6867 21.6 54.42C21.1467 54.14 20.6267 54 20.04 54C19.44 54 18.9133 54.14 18.46 54.42C18.0067 54.6867 17.6533 55.0667 17.4 55.56C17.1467 56.0533 17.02 56.62 17.02 57.26C17.02 57.8867 17.14 58.4467 17.38 58.94C17.6333 59.42 17.9867 59.8 18.44 60.08C18.9067 60.36 19.4333 60.5 20.02 60.5ZM31.3006 62.2C30.3673 62.2 29.5273 61.98 28.7806 61.54C28.034 61.1 27.4406 60.5067 27.0006 59.76C26.5606 59 26.3406 58.1533 26.3406 57.22C26.3406 56.3 26.5606 55.4733 27.0006 54.74C27.4406 53.9933 28.034 53.4 28.7806 52.96C29.5273 52.52 30.3673 52.3 31.3006 52.3C32.2206 52.3 33.054 52.52 33.8006 52.96C34.5606 53.3867 35.1606 53.9733 35.6006 54.72C36.0406 55.4667 36.2606 56.3 36.2606 57.22C36.2606 58.1533 36.0406 59 35.6006 59.76C35.1606 60.5067 34.5606 61.1 33.8006 61.54C33.054 61.98 32.2206 62.2 31.3006 62.2ZM31.3006 60.46C31.9006 60.46 32.434 60.32 32.9006 60.04C33.3673 59.76 33.734 59.38 34.0006 58.9C34.2673 58.4067 34.4006 57.8467 34.4006 57.22C34.4006 56.6067 34.2606 56.06 33.9806 55.58C33.714 55.1 33.3473 54.7267 32.8806 54.46C32.4273 54.18 31.9006 54.04 31.3006 54.04C30.7006 54.04 30.1673 54.18 29.7006 54.46C29.234 54.7267 28.8673 55.1 28.6006 55.58C28.334 56.06 28.2006 56.6067 28.2006 57.22C28.2006 57.8467 28.334 58.4067 28.6006 58.9C28.8673 59.38 29.234 59.76 29.7006 60.04C30.1673 60.32 30.7006 60.46 31.3006 60.46ZM45.0088 62V56.46C45.0088 55.74 44.7821 55.1467 44.3288 54.68C43.8754 54.2133 43.2888 53.98 42.5688 53.98C42.0888 53.98 41.6621 54.0867 41.2888 54.3C40.9154 54.5133 40.6221 54.8067 40.4088 55.18C40.1954 55.5533 40.0888 55.98 40.0888 56.46L39.3488 56.04C39.3488 55.32 39.5088 54.68 39.8288 54.12C40.1488 53.56 40.5954 53.12 41.1688 52.8C41.7421 52.4667 42.3888 52.3 43.1088 52.3C43.8288 52.3 44.4621 52.46 45.0088 52.78C45.5688 53.1 46.0088 53.5467 46.3288 54.12C46.6488 54.6933 46.8088 55.3533 46.8088 56.1V62H45.0088ZM38.2887 62V47.72H40.0888V62H38.2887ZM53.2858 62.2C52.4191 62.2 51.6324 61.9867 50.9258 61.56C50.2191 61.12 49.6591 60.5267 49.2458 59.78C48.8458 59.0333 48.6458 58.1933 48.6458 57.26C48.6458 56.3267 48.8458 55.4867 49.2458 54.74C49.6591 53.9933 50.2124 53.4 50.9058 52.96C51.6124 52.52 52.4058 52.3 53.2858 52.3C54.0058 52.3 54.6458 52.4533 55.2058 52.76C55.7791 53.0533 56.2391 53.4667 56.5858 54C56.9324 54.52 57.1258 55.1267 57.1658 55.82V58.68C57.1258 59.36 56.9324 59.9667 56.5858 60.5C56.2524 61.0333 55.7991 61.4533 55.2258 61.76C54.6658 62.0533 54.0191 62.2 53.2858 62.2ZM53.5858 60.5C54.4791 60.5 55.1991 60.2 55.7458 59.6C56.2924 58.9867 56.5658 58.2067 56.5658 57.26C56.5658 56.6067 56.4391 56.04 56.1858 55.56C55.9458 55.0667 55.5991 54.6867 55.1458 54.42C54.6924 54.14 54.1658 54 53.5658 54C52.9658 54 52.4324 54.14 51.9658 54.42C51.5124 54.7 51.1524 55.0867 50.8858 55.58C50.6324 56.06 50.5058 56.6133 50.5058 57.24C50.5058 57.88 50.6324 58.4467 50.8858 58.94C51.1524 59.42 51.5191 59.8 51.9858 60.08C52.4524 60.36 52.9858 60.5 53.5858 60.5ZM56.4458 62V59.44L56.7858 57.12L56.4458 54.82V52.5H58.2658V62H56.4458ZM62.3073 62V48.52H64.1073V62H62.3073ZM59.9673 54.14V52.5H66.4473V54.14H59.9673ZM72.3177 62.2C71.371 62.2 70.5177 61.9867 69.7577 61.56C68.9977 61.12 68.3977 60.5267 67.9577 59.78C67.5177 59.0333 67.2977 58.1867 67.2977 57.24C67.2977 56.3067 67.511 55.4667 67.9377 54.72C68.3777 53.9733 68.9643 53.3867 69.6977 52.96C70.4443 52.52 71.2777 52.3 72.1977 52.3C73.0777 52.3 73.851 52.5 74.5177 52.9C75.1977 53.3 75.7243 53.8533 76.0977 54.56C76.4843 55.2667 76.6777 56.0667 76.6777 56.96C76.6777 57.0933 76.671 57.24 76.6577 57.4C76.6443 57.5467 76.6177 57.72 76.5777 57.92H68.5577V56.42H75.6177L74.9577 57C74.9577 56.36 74.8443 55.82 74.6177 55.38C74.391 54.9267 74.071 54.58 73.6577 54.34C73.2443 54.0867 72.7443 53.96 72.1577 53.96C71.5443 53.96 71.0043 54.0933 70.5377 54.36C70.071 54.6267 69.711 55 69.4577 55.48C69.2043 55.96 69.0777 56.5267 69.0777 57.18C69.0777 57.8467 69.211 58.4333 69.4777 58.94C69.7443 59.4333 70.1243 59.82 70.6177 60.1C71.111 60.3667 71.6777 60.5 72.3177 60.5C72.851 60.5 73.3377 60.4067 73.7777 60.22C74.231 60.0333 74.6177 59.7533 74.9377 59.38L76.0977 60.56C75.6443 61.0933 75.0843 61.5 74.4177 61.78C73.7643 62.06 73.0643 62.2 72.3177 62.2ZM78.6403 62V52.5H80.4403V62H78.6403ZM80.4403 56.58L79.7603 56.28C79.7603 55.0667 80.0403 54.1 80.6003 53.38C81.1603 52.66 81.967 52.3 83.0203 52.3C83.5003 52.3 83.9336 52.3867 84.3203 52.56C84.707 52.72 85.067 52.9933 85.4003 53.38L84.2203 54.6C84.0203 54.3867 83.8003 54.2333 83.5603 54.14C83.3203 54.0467 83.0403 54 82.7203 54C82.0536 54 81.507 54.2133 81.0803 54.64C80.6536 55.0667 80.4403 55.7133 80.4403 56.58ZM90.7552 62.2C89.8085 62.2 88.9552 61.9867 88.1952 61.56C87.4352 61.12 86.8352 60.5267 86.3952 59.78C85.9552 59.0333 85.7352 58.1867 85.7352 57.24C85.7352 56.3067 85.9485 55.4667 86.3752 54.72C86.8152 53.9733 87.4018 53.3867 88.1352 52.96C88.8818 52.52 89.7152 52.3 90.6352 52.3C91.5152 52.3 92.2885 52.5 92.9552 52.9C93.6352 53.3 94.1618 53.8533 94.5352 54.56C94.9218 55.2667 95.1152 56.0667 95.1152 56.96C95.1152 57.0933 95.1085 57.24 95.0952 57.4C95.0818 57.5467 95.0552 57.72 95.0152 57.92H86.9952V56.42H94.0552L93.3952 57C93.3952 56.36 93.2818 55.82 93.0552 55.38C92.8285 54.9267 92.5085 54.58 92.0952 54.34C91.6818 54.0867 91.1818 53.96 90.5952 53.96C89.9818 53.96 89.4418 54.0933 88.9752 54.36C88.5085 54.6267 88.1485 55 87.8952 55.48C87.6418 55.96 87.5152 56.5267 87.5152 57.18C87.5152 57.8467 87.6485 58.4333 87.9152 58.94C88.1818 59.4333 88.5618 59.82 89.0552 60.1C89.5485 60.3667 90.1152 60.5 90.7552 60.5C91.2885 60.5 91.7752 60.4067 92.2152 60.22C92.6685 60.0333 93.0552 59.7533 93.3752 59.38L94.5352 60.56C94.0818 61.0933 93.5218 61.5 92.8552 61.78C92.2018 62.06 91.5018 62.2 90.7552 62.2ZM97.0778 62V52.5H98.8778V62H97.0778ZM103.498 62V56.26C103.498 55.5533 103.278 55 102.838 54.6C102.411 54.1867 101.871 53.98 101.218 53.98C100.778 53.98 100.384 54.0733 100.038 54.26C99.6911 54.4467 99.4111 54.7067 99.1978 55.04C98.9845 55.3733 98.8778 55.7733 98.8778 56.24L98.1378 55.88C98.1378 55.16 98.2911 54.5333 98.5978 54C98.9178 53.4667 99.3511 53.0533 99.8978 52.76C100.444 52.4533 101.058 52.3 101.738 52.3C102.404 52.3 103.004 52.4467 103.538 52.74C104.084 53.0333 104.511 53.4467 104.818 53.98C105.138 54.5133 105.298 55.1467 105.298 55.88V62H103.498ZM109.918 62V56.26C109.918 55.5533 109.698 55 109.258 54.6C108.831 54.1867 108.298 53.98 107.658 53.98C107.218 53.98 106.818 54.0733 106.458 54.26C106.111 54.4467 105.831 54.7067 105.618 55.04C105.404 55.3733 105.298 55.7733 105.298 56.24L104.278 55.88C104.318 55.1467 104.511 54.52 104.858 54C105.218 53.4667 105.678 53.0533 106.238 52.76C106.798 52.4533 107.411 52.3 108.078 52.3C108.771 52.3 109.391 52.4467 109.938 52.74C110.484 53.0333 110.918 53.4467 111.238 53.98C111.571 54.5133 111.738 55.1533 111.738 55.9V62H109.918ZM117.247 57.6L117.227 53.8L117.767 53.78C118.234 53.78 118.641 53.68 118.987 53.48C119.347 53.28 119.627 53.0067 119.827 52.66C120.027 52.3133 120.127 51.9267 120.127 51.5C120.127 51.06 120.027 50.6733 119.827 50.34C119.641 50.0067 119.367 49.7467 119.007 49.56C118.661 49.3733 118.247 49.28 117.767 49.28C117.127 49.28 116.574 49.44 116.107 49.76C115.641 50.08 115.267 50.5333 114.987 51.12L113.667 50.02C114.054 49.2333 114.607 48.62 115.327 48.18C116.061 47.74 116.901 47.52 117.847 47.52C118.661 47.52 119.381 47.6867 120.007 48.02C120.634 48.34 121.121 48.7933 121.467 49.38C121.814 49.9533 121.987 50.62 121.987 51.38C121.987 52.0733 121.827 52.7067 121.507 53.28C121.201 53.84 120.761 54.3067 120.187 54.68C119.627 55.04 118.961 55.2733 118.187 55.38L118.967 54.58L118.807 57.6H117.247ZM118.007 62.2C117.634 62.2 117.321 62.0733 117.067 61.82C116.827 61.5667 116.707 61.2533 116.707 60.88C116.707 60.5067 116.827 60.2 117.067 59.96C117.321 59.7067 117.634 59.58 118.007 59.58C118.381 59.58 118.687 59.7067 118.927 59.96C119.181 60.2 119.307 60.5067 119.307 60.88C119.307 61.2533 119.181 61.5667 118.927 61.82C118.687 62.0733 118.381 62.2 118.007 62.2Z" fill="white"/>
<defs>
<filter id="filter0_d_304_126" x="0" y="0" width="578" height="100" filterUnits="userSpaceOnUse" color-interpolation-filters="sRGB">
<feFlood flood-opacity="0" result="BackgroundImageFix"/>
<feColorMatrix in="SourceAlpha" type="matrix" values="0 0 0 0 0 0 0 0 0 0 0 0 0 0 0 0 0 0 127 0" result="hardAlpha"/>
<feOffset dx="4" dy="4"/>
<feGaussianBlur stdDeviation="2"/>
<feComposite in2="hardAlpha" operator="out"/>
<feColorMatrix type="matrix" values="0 0 0 0 0 0 0 0 0 0 0 0 0 0 0 0 0 0 0.25 0"/>
<feBlend mode="normal" in2="BackgroundImageFix" result="effect1_dropShadow_304_126"/>
<feBlend mode="normal" in="SourceGraphic" in2="effect1_dropShadow_304_126" result="shape"/>
</filter>
</defs>
</svg>
