<svg width="578" height="100" viewBox="0 0 578 100" fill="none" xmlns="http://www.w3.org/2000/svg">
<g filter="url(#filter0_d_303_98)">
<rect width="570" height="92" rx="12" fill="#3B3B3B"/>
</g>
<path d="M15.9 36V34.36H20.1C20.9 34.36 21.5267 34.1267 21.98 33.66C22.4333 33.18 22.66 32.6067 22.66 31.94C22.66 31.4867 22.56 31.08 22.36 30.72C22.16 30.3467 21.8667 30.0533 21.48 29.84C21.1067 29.6267 20.6667 29.52 20.16 29.52H15.9V27.88H19.88C20.5467 27.88 21.0733 27.7067 21.46 27.36C21.86 27 22.06 26.4867 22.06 25.82C22.06 25.1533 21.8533 24.6467 21.44 24.3C21.0267 23.94 20.48 23.76 19.8 23.76H15.9V22.12H19.84C20.7467 22.12 21.5 22.2867 22.1 22.62C22.7133 22.94 23.1733 23.3667 23.48 23.9C23.8 24.4333 23.96 25.02 23.96 25.66C23.96 26.4067 23.7533 27.06 23.34 27.62C22.94 28.18 22.3467 28.62 21.56 28.94L21.72 28.34C22.6133 28.66 23.3067 29.1467 23.8 29.8C24.3067 30.44 24.56 31.2 24.56 32.08C24.56 32.8133 24.38 33.4733 24.02 34.06C23.66 34.6467 23.14 35.12 22.46 35.48C21.7933 35.8267 20.9733 36 20 36H15.9ZM14.64 36V22.12H16.52V36H14.64ZM30.6009 36.2C29.8276 36.2 29.1276 36.0267 28.5009 35.68C27.8876 35.32 27.4076 34.8267 27.0609 34.2C26.7143 33.5733 26.5409 32.8467 26.5409 32.02V26.5H28.3409V31.94C28.3409 32.46 28.4276 32.9133 28.6009 33.3C28.7876 33.6733 29.0543 33.96 29.4009 34.16C29.7476 34.36 30.1543 34.46 30.6209 34.46C31.3276 34.46 31.8809 34.24 32.2809 33.8C32.6809 33.3467 32.8809 32.7267 32.8809 31.94V26.5H34.6809V32.02C34.6809 32.8467 34.5076 33.5733 34.1609 34.2C33.8143 34.8267 33.3343 35.32 32.7209 35.68C32.1209 36.0267 31.4143 36.2 30.6009 36.2ZM43.8134 36V30.46C43.8134 29.74 43.5868 29.1467 43.1334 28.68C42.6801 28.2133 42.0934 27.98 41.3734 27.98C40.8934 27.98 40.4668 28.0867 40.0934 28.3C39.7201 28.5133 39.4268 28.8067 39.2134 29.18C39.0001 29.5533 38.8934 29.98 38.8934 30.46L38.1534 30.04C38.1534 29.32 38.3134 28.68 38.6334 28.12C38.9534 27.56 39.4001 27.12 39.9734 26.8C40.5468 26.4667 41.1934 26.3 41.9134 26.3C42.6334 26.3 43.2668 26.48 43.8134 26.84C44.3734 27.2 44.8134 27.6733 45.1334 28.26C45.4534 28.8333 45.6134 29.4467 45.6134 30.1V36H43.8134ZM37.0934 36V26.5H38.8934V36H37.0934ZM49.3933 36V22.52H51.1933V36H49.3933ZM47.0533 28.14V26.5H53.5333V28.14H47.0533ZM59.4767 36V26.5H61.2767V36H59.4767ZM60.3767 24.6C60.0434 24.6 59.7701 24.4933 59.5567 24.28C59.3434 24.0533 59.2367 23.7733 59.2367 23.44C59.2367 23.12 59.3434 22.8533 59.5567 22.64C59.7701 22.4133 60.0434 22.3 60.3767 22.3C60.7101 22.3 60.9834 22.4133 61.1967 22.64C61.4101 22.8533 61.5167 23.12 61.5167 23.44C61.5167 23.7733 61.4101 24.0533 61.1967 24.28C60.9834 24.4933 60.7101 24.6 60.3767 24.6ZM66.8895 40.18C66.2762 40.18 65.7629 40.08 65.3495 39.88C64.9229 39.68 64.5429 39.3933 64.2095 39.02L65.3695 37.84C65.5562 38.0667 65.7629 38.2333 65.9895 38.34C66.2029 38.4467 66.4629 38.5 66.7695 38.5C67.1695 38.5 67.5162 38.3733 67.8095 38.12C68.1029 37.88 68.2495 37.5133 68.2495 37.02V26.5H70.0495V37C70.0495 37.6933 69.9029 38.2733 69.6095 38.74C69.3162 39.2067 68.9295 39.56 68.4495 39.8C67.9695 40.0533 67.4495 40.18 66.8895 40.18ZM69.1695 24.6C68.8495 24.6 68.5829 24.4933 68.3695 24.28C68.1562 24.0533 68.0495 23.7733 68.0495 23.44C68.0495 23.12 68.1562 22.8533 68.3695 22.64C68.5829 22.4133 68.8495 22.3 69.1695 22.3C69.5029 22.3 69.7762 22.4133 69.9895 22.64C70.2029 22.8533 70.3095 23.12 70.3095 23.44C70.3095 23.7733 70.2029 24.0533 69.9895 24.28C69.7762 24.4933 69.5029 24.6 69.1695 24.6ZM77.0989 36.2C76.1522 36.2 75.2989 35.9867 74.5389 35.56C73.7789 35.12 73.1789 34.5267 72.7389 33.78C72.2989 33.0333 72.0789 32.1867 72.0789 31.24C72.0789 30.3067 72.2922 29.4667 72.7189 28.72C73.1589 27.9733 73.7456 27.3867 74.4789 26.96C75.2256 26.52 76.0589 26.3 76.9789 26.3C77.8589 26.3 78.6322 26.5 79.2989 26.9C79.9789 27.3 80.5056 27.8533 80.8789 28.56C81.2656 29.2667 81.4589 30.0667 81.4589 30.96C81.4589 31.0933 81.4522 31.24 81.4389 31.4C81.4256 31.5467 81.3989 31.72 81.3589 31.92H73.3389V30.42H80.3989L79.7389 31C79.7389 30.36 79.6256 29.82 79.3989 29.38C79.1722 28.9267 78.8522 28.58 78.4389 28.34C78.0256 28.0867 77.5256 27.96 76.9389 27.96C76.3256 27.96 75.7856 28.0933 75.3189 28.36C74.8522 28.6267 74.4922 29 74.2389 29.48C73.9856 29.96 73.8589 30.5267 73.8589 31.18C73.8589 31.8467 73.9922 32.4333 74.2589 32.94C74.5256 33.4333 74.9056 33.82 75.3989 34.1C75.8922 34.3667 76.4589 34.5 77.0989 34.5C77.6322 34.5 78.1189 34.4067 78.5589 34.22C79.0122 34.0333 79.3989 33.7533 79.7189 33.38L80.8789 34.56C80.4256 35.0933 79.8656 35.5 79.1989 35.78C78.5456 36.06 77.8456 36.2 77.0989 36.2ZM87.3616 40.18C86.3882 40.18 85.5216 40 84.7616 39.64C84.0149 39.28 83.4149 38.7733 82.9616 38.12L84.1216 36.94C84.5082 37.4333 84.9682 37.8067 85.5016 38.06C86.0349 38.3267 86.6682 38.46 87.4016 38.46C88.3749 38.46 89.1416 38.2 89.7016 37.68C90.2749 37.1733 90.5616 36.4867 90.5616 35.62V33.26L90.8816 31.12L90.5616 29V26.5H92.3616V35.62C92.3616 36.5267 92.1482 37.32 91.7216 38C91.3082 38.68 90.7216 39.2133 89.9616 39.6C89.2149 39.9867 88.3482 40.18 87.3616 40.18ZM87.3616 35.84C86.4949 35.84 85.7149 35.6333 85.0216 35.22C84.3416 34.8067 83.8016 34.24 83.4016 33.52C83.0016 32.7867 82.8016 31.9667 82.8016 31.06C82.8016 30.1533 83.0016 29.3467 83.4016 28.64C83.8016 27.92 84.3416 27.3533 85.0216 26.94C85.7149 26.5133 86.4949 26.3 87.3616 26.3C88.1082 26.3 88.7682 26.4467 89.3416 26.74C89.9149 27.0333 90.3682 27.4467 90.7016 27.98C91.0482 28.5 91.2349 29.1133 91.2616 29.82V32.34C91.2216 33.0333 91.0282 33.6467 90.6816 34.18C90.3482 34.7 89.8949 35.1067 89.3216 35.4C88.7482 35.6933 88.0949 35.84 87.3616 35.84ZM87.7216 34.14C88.3082 34.14 88.8216 34.0133 89.2616 33.76C89.7149 33.5067 90.0616 33.1533 90.3016 32.7C90.5416 32.2333 90.6616 31.6933 90.6616 31.08C90.6616 30.4667 90.5349 29.9333 90.2816 29.48C90.0416 29.0133 89.7016 28.6533 89.2616 28.4C88.8216 28.1333 88.3016 28 87.7016 28C87.1016 28 86.5749 28.1333 86.1216 28.4C85.6682 28.6533 85.3082 29.0133 85.0416 29.48C84.7882 29.9333 84.6616 30.46 84.6616 31.06C84.6616 31.66 84.7882 32.1933 85.0416 32.66C85.3082 33.1267 85.6682 33.4933 86.1216 33.76C86.5882 34.0133 87.1216 34.14 87.7216 34.14ZM99.3436 36.2C98.4103 36.2 97.5703 35.98 96.8236 35.54C96.0769 35.1 95.4836 34.5067 95.0436 33.76C94.6036 33 94.3836 32.1533 94.3836 31.22C94.3836 30.3 94.6036 29.4733 95.0436 28.74C95.4836 27.9933 96.0769 27.4 96.8236 26.96C97.5703 26.52 98.4103 26.3 99.3436 26.3C100.264 26.3 101.097 26.52 101.844 26.96C102.604 27.3867 103.204 27.9733 103.644 28.72C104.084 29.4667 104.304 30.3 104.304 31.22C104.304 32.1533 104.084 33 103.644 33.76C103.204 34.5067 102.604 35.1 101.844 35.54C101.097 35.98 100.264 36.2 99.3436 36.2ZM99.3436 34.46C99.9436 34.46 100.477 34.32 100.944 34.04C101.41 33.76 101.777 33.38 102.044 32.9C102.31 32.4067 102.444 31.8467 102.444 31.22C102.444 30.6067 102.304 30.06 102.024 29.58C101.757 29.1 101.39 28.7267 100.924 28.46C100.47 28.18 99.9436 28.04 99.3436 28.04C98.7436 28.04 98.2103 28.18 97.7436 28.46C97.2769 28.7267 96.9103 29.1 96.6436 29.58C96.3769 30.06 96.2436 30.6067 96.2436 31.22C96.2436 31.8467 96.3769 32.4067 96.6436 32.9C96.9103 33.38 97.2769 33.76 97.7436 34.04C98.2103 34.32 98.7436 34.46 99.3436 34.46ZM116.572 36L112.132 31.14L116.532 26.5H118.712L113.812 31.62L113.892 30.58L118.892 36H116.572ZM110.492 36V21.72H112.292V36H110.492ZM124.246 36.2C123.313 36.2 122.473 35.98 121.726 35.54C120.979 35.1 120.386 34.5067 119.946 33.76C119.506 33 119.286 32.1533 119.286 31.22C119.286 30.3 119.506 29.4733 119.946 28.74C120.386 27.9933 120.979 27.4 121.726 26.96C122.473 26.52 123.313 26.3 124.246 26.3C125.166 26.3 125.999 26.52 126.746 26.96C127.506 27.3867 128.106 27.9733 128.546 28.72C128.986 29.4667 129.206 30.3 129.206 31.22C129.206 32.1533 128.986 33 128.546 33.76C128.106 34.5067 127.506 35.1 126.746 35.54C125.999 35.98 125.166 36.2 124.246 36.2ZM124.246 34.46C124.846 34.46 125.379 34.32 125.846 34.04C126.313 33.76 126.679 33.38 126.946 32.9C127.213 32.4067 127.346 31.8467 127.346 31.22C127.346 30.6067 127.206 30.06 126.926 29.58C126.659 29.1 126.293 28.7267 125.826 28.46C125.373 28.18 124.846 28.04 124.246 28.04C123.646 28.04 123.113 28.18 122.646 28.46C122.179 28.7267 121.813 29.1 121.546 29.58C121.279 30.06 121.146 30.6067 121.146 31.22C121.146 31.8467 121.279 32.4067 121.546 32.9C121.813 33.38 122.179 33.76 122.646 34.04C123.113 34.32 123.646 34.46 124.246 34.46ZM137.954 36V30.46C137.954 29.74 137.727 29.1467 137.274 28.68C136.821 28.2133 136.234 27.98 135.514 27.98C135.034 27.98 134.607 28.0867 134.234 28.3C133.861 28.5133 133.567 28.8067 133.354 29.18C133.141 29.5533 133.034 29.98 133.034 30.46L132.294 30.04C132.294 29.32 132.454 28.68 132.774 28.12C133.094 27.56 133.541 27.12 134.114 26.8C134.687 26.4667 135.334 26.3 136.054 26.3C136.774 26.3 137.407 26.48 137.954 26.84C138.514 27.2 138.954 27.6733 139.274 28.26C139.594 28.8333 139.754 29.4467 139.754 30.1V36H137.954ZM131.234 36V26.5H133.034V36H131.234ZM145.211 36.2C144.678 36.2 144.171 36.1333 143.691 36C143.224 35.8533 142.791 35.6533 142.391 35.4C141.991 35.1333 141.644 34.82 141.351 34.46L142.511 33.3C142.858 33.7267 143.258 34.0467 143.711 34.26C144.164 34.46 144.671 34.56 145.231 34.56C145.791 34.56 146.224 34.4667 146.531 34.28C146.838 34.08 146.991 33.8067 146.991 33.46C146.991 33.1133 146.864 32.8467 146.611 32.66C146.371 32.46 146.058 32.3 145.671 32.18C145.284 32.0467 144.871 31.92 144.431 31.8C144.004 31.6667 143.598 31.5 143.211 31.3C142.824 31.1 142.504 30.8267 142.251 30.48C142.011 30.1333 141.891 29.6733 141.891 29.1C141.891 28.5267 142.031 28.0333 142.311 27.62C142.591 27.1933 142.978 26.8667 143.471 26.64C143.978 26.4133 144.584 26.3 145.291 26.3C146.038 26.3 146.698 26.4333 147.271 26.7C147.858 26.9533 148.338 27.34 148.711 27.86L147.551 29.02C147.284 28.6733 146.951 28.4067 146.551 28.22C146.164 28.0333 145.724 27.94 145.231 27.94C144.711 27.94 144.311 28.0333 144.031 28.22C143.764 28.3933 143.631 28.64 143.631 28.96C143.631 29.28 143.751 29.5267 143.991 29.7C144.231 29.8733 144.544 30.02 144.931 30.14C145.331 30.26 145.744 30.3867 146.171 30.52C146.598 30.64 147.004 30.8067 147.391 31.02C147.778 31.2333 148.091 31.52 148.331 31.88C148.584 32.24 148.711 32.7133 148.711 33.3C148.711 34.1933 148.391 34.9 147.751 35.42C147.124 35.94 146.278 36.2 145.211 36.2ZM155.126 36.2C154.18 36.2 153.326 35.9867 152.566 35.56C151.806 35.12 151.206 34.5267 150.766 33.78C150.326 33.0333 150.106 32.1867 150.106 31.24C150.106 30.3067 150.32 29.4667 150.746 28.72C151.186 27.9733 151.773 27.3867 152.506 26.96C153.253 26.52 154.086 26.3 155.006 26.3C155.886 26.3 156.66 26.5 157.326 26.9C158.006 27.3 158.533 27.8533 158.906 28.56C159.293 29.2667 159.486 30.0667 159.486 30.96C159.486 31.0933 159.48 31.24 159.466 31.4C159.453 31.5467 159.426 31.72 159.386 31.92H151.366V30.42H158.426L157.766 31C157.766 30.36 157.653 29.82 157.426 29.38C157.2 28.9267 156.88 28.58 156.466 28.34C156.053 28.0867 155.553 27.96 154.966 27.96C154.353 27.96 153.813 28.0933 153.346 28.36C152.88 28.6267 152.52 29 152.266 29.48C152.013 29.96 151.886 30.5267 151.886 31.18C151.886 31.8467 152.02 32.4333 152.286 32.94C152.553 33.4333 152.933 33.82 153.426 34.1C153.92 34.3667 154.486 34.5 155.126 34.5C155.66 34.5 156.146 34.4067 156.586 34.22C157.04 34.0333 157.426 33.7533 157.746 33.38L158.906 34.56C158.453 35.0933 157.893 35.5 157.226 35.78C156.573 36.06 155.873 36.2 155.126 36.2ZM167.529 36L163.089 31.14L167.489 26.5H169.669L164.769 31.62L164.849 30.58L169.849 36H167.529ZM161.449 36V21.72H163.249V36H161.449ZM173.466 36L169.706 26.5H171.586L174.306 33.9H173.706L176.406 26.5H177.446L180.146 33.9H179.546L182.266 26.5H184.146L180.406 36H179.346L176.606 28.82H177.266L174.506 36H173.466ZM189.872 36.2C188.926 36.2 188.072 35.9867 187.312 35.56C186.552 35.12 185.952 34.5267 185.512 33.78C185.072 33.0333 184.852 32.1867 184.852 31.24C184.852 30.3067 185.066 29.4667 185.492 28.72C185.932 27.9733 186.519 27.3867 187.252 26.96C187.999 26.52 188.832 26.3 189.752 26.3C190.632 26.3 191.406 26.5 192.072 26.9C192.752 27.3 193.279 27.8533 193.652 28.56C194.039 29.2667 194.232 30.0667 194.232 30.96C194.232 31.0933 194.226 31.24 194.212 31.4C194.199 31.5467 194.172 31.72 194.132 31.92H186.112V30.42H193.172L192.512 31C192.512 30.36 192.399 29.82 192.172 29.38C191.946 28.9267 191.626 28.58 191.212 28.34C190.799 28.0867 190.299 27.96 189.712 27.96C189.099 27.96 188.559 28.0933 188.092 28.36C187.626 28.6267 187.266 29 187.012 29.48C186.759 29.96 186.632 30.5267 186.632 31.18C186.632 31.8467 186.766 32.4333 187.032 32.94C187.299 33.4333 187.679 33.82 188.172 34.1C188.666 34.3667 189.232 34.5 189.872 34.5C190.406 34.5 190.892 34.4067 191.332 34.22C191.786 34.0333 192.172 33.7533 192.492 33.38L193.652 34.56C193.199 35.0933 192.639 35.5 191.972 35.78C191.319 36.06 190.619 36.2 189.872 36.2ZM202.915 36V30.46C202.915 29.74 202.688 29.1467 202.235 28.68C201.782 28.2133 201.195 27.98 200.475 27.98C199.995 27.98 199.568 28.0867 199.195 28.3C198.822 28.5133 198.528 28.8067 198.315 29.18C198.102 29.5533 197.995 29.98 197.995 30.46L197.255 30.04C197.255 29.32 197.415 28.68 197.735 28.12C198.055 27.56 198.502 27.12 199.075 26.8C199.648 26.4667 200.295 26.3 201.015 26.3C201.735 26.3 202.368 26.48 202.915 26.84C203.475 27.2 203.915 27.6733 204.235 28.26C204.555 28.8333 204.715 29.4467 204.715 30.1V36H202.915ZM196.195 36V26.5H197.995V36H196.195ZM211.492 36.2C210.559 36.2 209.712 35.98 208.952 35.54C208.205 35.1 207.612 34.5067 207.172 33.76C206.745 33 206.532 32.16 206.532 31.24C206.532 30.3067 206.745 29.4667 207.172 28.72C207.612 27.9733 208.205 27.3867 208.952 26.96C209.712 26.52 210.559 26.3 211.492 26.3C212.225 26.3 212.905 26.44 213.532 26.72C214.159 26.9867 214.699 27.38 215.152 27.9L213.952 29.1C213.659 28.7533 213.299 28.4933 212.872 28.32C212.459 28.1333 211.999 28.04 211.492 28.04C210.892 28.04 210.359 28.18 209.892 28.46C209.425 28.7267 209.059 29.1 208.792 29.58C208.525 30.06 208.392 30.6133 208.392 31.24C208.392 31.8667 208.525 32.42 208.792 32.9C209.059 33.38 209.425 33.76 209.892 34.04C210.359 34.32 210.892 34.46 211.492 34.46C211.999 34.46 212.459 34.3733 212.872 34.2C213.299 34.0133 213.665 33.7467 213.972 33.4L215.152 34.6C214.712 35.1067 214.172 35.5 213.532 35.78C212.905 36.06 212.225 36.2 211.492 36.2ZM215.737 40.18C215.124 40.18 214.611 40.08 214.197 39.88C213.771 39.68 213.391 39.3933 213.057 39.02L214.217 37.84C214.404 38.0667 214.611 38.2333 214.837 38.34C215.051 38.4467 215.311 38.5 215.617 38.5C216.017 38.5 216.364 38.3733 216.657 38.12C216.951 37.88 217.097 37.5133 217.097 37.02V26.5H218.897V37C218.897 37.6933 218.751 38.2733 218.457 38.74C218.164 39.2067 217.777 39.56 217.297 39.8C216.817 40.0533 216.297 40.18 215.737 40.18ZM218.017 24.6C217.697 24.6 217.431 24.4933 217.217 24.28C217.004 24.0533 216.897 23.7733 216.897 23.44C216.897 23.12 217.004 22.8533 217.217 22.64C217.431 22.4133 217.697 22.3 218.017 22.3C218.351 22.3 218.624 22.4133 218.837 22.64C219.051 22.8533 219.157 23.12 219.157 23.44C219.157 23.7733 219.051 24.0533 218.837 24.28C218.624 24.4933 218.351 24.6 218.017 24.6ZM225.947 36.2C225 36.2 224.147 35.9867 223.387 35.56C222.627 35.12 222.027 34.5267 221.587 33.78C221.147 33.0333 220.927 32.1867 220.927 31.24C220.927 30.3067 221.14 29.4667 221.567 28.72C222.007 27.9733 222.593 27.3867 223.327 26.96C224.073 26.52 224.907 26.3 225.827 26.3C226.707 26.3 227.48 26.5 228.147 26.9C228.827 27.3 229.353 27.8533 229.727 28.56C230.113 29.2667 230.307 30.0667 230.307 30.96C230.307 31.0933 230.3 31.24 230.287 31.4C230.273 31.5467 230.247 31.72 230.207 31.92H222.187V30.42H229.247L228.587 31C228.587 30.36 228.473 29.82 228.247 29.38C228.02 28.9267 227.7 28.58 227.287 28.34C226.873 28.0867 226.373 27.96 225.787 27.96C225.173 27.96 224.633 28.0933 224.167 28.36C223.7 28.6267 223.34 29 223.087 29.48C222.833 29.96 222.707 30.5267 222.707 31.18C222.707 31.8467 222.84 32.4333 223.107 32.94C223.373 33.4333 223.753 33.82 224.247 34.1C224.74 34.3667 225.307 34.5 225.947 34.5C226.48 34.5 226.967 34.4067 227.407 34.22C227.86 34.0333 228.247 33.7533 228.567 33.38L229.727 34.56C229.273 35.0933 228.713 35.5 228.047 35.78C227.393 36.06 226.693 36.2 225.947 36.2ZM240.449 36.2C239.569 36.2 238.783 35.9867 238.089 35.56C237.396 35.12 236.843 34.5267 236.429 33.78C236.029 33.0333 235.829 32.1933 235.829 31.26C235.829 30.3267 236.029 29.4867 236.429 28.74C236.843 27.9933 237.396 27.4 238.089 26.96C238.783 26.52 239.569 26.3 240.449 26.3C241.156 26.3 241.796 26.4533 242.369 26.76C242.943 27.0533 243.403 27.4667 243.749 28C244.109 28.52 244.309 29.1267 244.349 29.82V32.68C244.309 33.36 244.116 33.9667 243.769 34.5C243.423 35.0333 242.963 35.4533 242.389 35.76C241.816 36.0533 241.169 36.2 240.449 36.2ZM240.749 34.5C241.349 34.5 241.869 34.36 242.309 34.08C242.763 33.8 243.116 33.42 243.369 32.94C243.623 32.4467 243.749 31.8867 243.749 31.26C243.749 30.6067 243.616 30.04 243.349 29.56C243.096 29.08 242.743 28.7 242.289 28.42C241.849 28.14 241.329 28 240.729 28C240.129 28 239.603 28.14 239.149 28.42C238.696 28.7 238.336 29.0867 238.069 29.58C237.816 30.06 237.689 30.6133 237.689 31.24C237.689 31.88 237.816 32.4467 238.069 32.94C238.336 33.42 238.696 33.8 239.149 34.08C239.616 34.36 240.149 34.5 240.749 34.5ZM245.449 36H243.629V33.44L243.969 31.12L243.629 28.82V21.72H245.449V36ZM248.07 36V21.72H249.87V36H248.07ZM256.544 36.2C255.677 36.2 254.89 35.9867 254.184 35.56C253.477 35.12 252.917 34.5267 252.504 33.78C252.104 33.0333 251.904 32.1933 251.904 31.26C251.904 30.3267 252.104 29.4867 252.504 28.74C252.917 27.9933 253.47 27.4 254.164 26.96C254.87 26.52 255.664 26.3 256.544 26.3C257.264 26.3 257.904 26.4533 258.464 26.76C259.037 27.0533 259.497 27.4667 259.844 28C260.19 28.52 260.384 29.1267 260.424 29.82V32.68C260.384 33.36 260.19 33.9667 259.844 34.5C259.51 35.0333 259.057 35.4533 258.484 35.76C257.924 36.0533 257.277 36.2 256.544 36.2ZM256.844 34.5C257.737 34.5 258.457 34.2 259.004 33.6C259.55 32.9867 259.824 32.2067 259.824 31.26C259.824 30.6067 259.697 30.04 259.444 29.56C259.204 29.0667 258.857 28.6867 258.404 28.42C257.95 28.14 257.424 28 256.824 28C256.224 28 255.69 28.14 255.224 28.42C254.77 28.7 254.41 29.0867 254.144 29.58C253.89 30.06 253.764 30.6133 253.764 31.24C253.764 31.88 253.89 32.4467 254.144 32.94C254.41 33.42 254.777 33.8 255.244 34.08C255.71 34.36 256.244 34.5 256.844 34.5ZM259.704 36V33.44L260.044 31.12L259.704 28.82V26.5H261.524V36H259.704ZM272.644 36.2C271.711 36.2 270.864 35.98 270.104 35.54C269.358 35.1 268.764 34.5067 268.324 33.76C267.898 33 267.684 32.16 267.684 31.24C267.684 30.3067 267.898 29.4667 268.324 28.72C268.764 27.9733 269.358 27.3867 270.104 26.96C270.864 26.52 271.711 26.3 272.644 26.3C273.378 26.3 274.058 26.44 274.684 26.72C275.311 26.9867 275.851 27.38 276.304 27.9L275.104 29.1C274.811 28.7533 274.451 28.4933 274.024 28.32C273.611 28.1333 273.151 28.04 272.644 28.04C272.044 28.04 271.511 28.18 271.044 28.46C270.578 28.7267 270.211 29.1 269.944 29.58C269.678 30.06 269.544 30.6133 269.544 31.24C269.544 31.8667 269.678 32.42 269.944 32.9C270.211 33.38 270.578 33.76 271.044 34.04C271.511 34.32 272.044 34.46 272.644 34.46C273.151 34.46 273.611 34.3733 274.024 34.2C274.451 34.0133 274.818 33.7467 275.124 33.4L276.304 34.6C275.864 35.1067 275.324 35.5 274.684 35.78C274.058 36.06 273.378 36.2 272.644 36.2ZM277.33 35.02L282.97 27.48H285.09L279.45 35.02H277.33ZM277.33 36V35.02L278.93 34.36H284.97V36H277.33ZM277.67 28.14V26.5H285.09V27.48L283.43 28.14H277.67ZM287.035 29.56L292.515 26.4V28.12L287.035 31.28V29.56ZM288.875 36V21.72H290.675V36H288.875ZM299.48 36.2C298.547 36.2 297.707 35.98 296.96 35.54C296.214 35.1 295.62 34.5067 295.18 33.76C294.74 33 294.52 32.1533 294.52 31.22C294.52 30.3 294.74 29.4733 295.18 28.74C295.62 27.9933 296.214 27.4 296.96 26.96C297.707 26.52 298.547 26.3 299.48 26.3C300.4 26.3 301.234 26.52 301.98 26.96C302.74 27.3867 303.34 27.9733 303.78 28.72C304.22 29.4667 304.44 30.3 304.44 31.22C304.44 32.1533 304.22 33 303.78 33.76C303.34 34.5067 302.74 35.1 301.98 35.54C301.234 35.98 300.4 36.2 299.48 36.2ZM299.48 34.46C300.08 34.46 300.614 34.32 301.08 34.04C301.547 33.76 301.914 33.38 302.18 32.9C302.447 32.4067 302.58 31.8467 302.58 31.22C302.58 30.6067 302.44 30.06 302.16 29.58C301.894 29.1 301.527 28.7267 301.06 28.46C300.607 28.18 300.08 28.04 299.48 28.04C298.88 28.04 298.347 28.18 297.88 28.46C297.414 28.7267 297.047 29.1 296.78 29.58C296.514 30.06 296.38 30.6067 296.38 31.22C296.38 31.8467 296.514 32.4067 296.78 32.9C297.047 33.38 297.414 33.76 297.88 34.04C298.347 34.32 298.88 34.46 299.48 34.46ZM308.915 36L305.155 26.5H307.035L309.755 33.9H309.155L311.855 26.5H312.895L315.595 33.9H314.995L317.715 26.5H319.595L315.855 36H314.795L312.055 28.82H312.715L309.955 36H308.915ZM321.059 36V26.5H322.859V36H321.059ZM321.959 24.6C321.625 24.6 321.352 24.4933 321.139 24.28C320.925 24.0533 320.819 23.7733 320.819 23.44C320.819 23.12 320.925 22.8533 321.139 22.64C321.352 22.4133 321.625 22.3 321.959 22.3C322.292 22.3 322.565 22.4133 322.779 22.64C322.992 22.8533 323.099 23.12 323.099 23.44C323.099 23.7733 322.992 24.0533 322.779 24.28C322.565 24.4933 322.292 24.6 321.959 24.6ZM329.911 36.2C328.965 36.2 328.111 35.9867 327.351 35.56C326.591 35.12 325.991 34.5267 325.551 33.78C325.111 33.0333 324.891 32.1867 324.891 31.24C324.891 30.3067 325.105 29.4667 325.531 28.72C325.971 27.9733 326.558 27.3867 327.291 26.96C328.038 26.52 328.871 26.3 329.791 26.3C330.671 26.3 331.445 26.5 332.111 26.9C332.791 27.3 333.318 27.8533 333.691 28.56C334.078 29.2667 334.271 30.0667 334.271 30.96C334.271 31.0933 334.265 31.24 334.251 31.4C334.238 31.5467 334.211 31.72 334.171 31.92H326.151V30.42H333.211L332.551 31C332.551 30.36 332.438 29.82 332.211 29.38C331.985 28.9267 331.665 28.58 331.251 28.34C330.838 28.0867 330.338 27.96 329.751 27.96C329.138 27.96 328.598 28.0933 328.131 28.36C327.665 28.6267 327.305 29 327.051 29.48C326.798 29.96 326.671 30.5267 326.671 31.18C326.671 31.8467 326.805 32.4333 327.071 32.94C327.338 33.4333 327.718 33.82 328.211 34.1C328.705 34.3667 329.271 34.5 329.911 34.5C330.445 34.5 330.931 34.4067 331.371 34.22C331.825 34.0333 332.211 33.7533 332.531 33.38L333.691 34.56C333.238 35.0933 332.678 35.5 332.011 35.78C331.358 36.06 330.658 36.2 329.911 36.2ZM342.314 36L337.874 31.14L342.274 26.5H344.454L339.554 31.62L339.634 30.58L344.634 36H342.314ZM336.234 36V21.72H338.034V36H336.234ZM349.688 36.2C348.821 36.2 348.035 35.9867 347.328 35.56C346.621 35.12 346.061 34.5267 345.648 33.78C345.248 33.0333 345.048 32.1933 345.048 31.26C345.048 30.3267 345.248 29.4867 345.648 28.74C346.061 27.9933 346.615 27.4 347.308 26.96C348.015 26.52 348.808 26.3 349.688 26.3C350.408 26.3 351.048 26.4533 351.608 26.76C352.181 27.0533 352.641 27.4667 352.988 28C353.335 28.52 353.528 29.1267 353.568 29.82V32.68C353.528 33.36 353.335 33.9667 352.988 34.5C352.655 35.0333 352.201 35.4533 351.628 35.76C351.068 36.0533 350.421 36.2 349.688 36.2ZM349.988 34.5C350.881 34.5 351.601 34.2 352.148 33.6C352.695 32.9867 352.968 32.2067 352.968 31.26C352.968 30.6067 352.841 30.04 352.588 29.56C352.348 29.0667 352.001 28.6867 351.548 28.42C351.095 28.14 350.568 28 349.968 28C349.368 28 348.835 28.14 348.368 28.42C347.915 28.7 347.555 29.0867 347.288 29.58C347.035 30.06 346.908 30.6133 346.908 31.24C346.908 31.88 347.035 32.4467 347.288 32.94C347.555 33.42 347.921 33.8 348.388 34.08C348.855 34.36 349.388 34.5 349.988 34.5ZM352.848 36V33.44L353.188 31.12L352.848 28.82V26.5H354.668V36H352.848Z" fill="white"/>
<defs>
<filter id="filter0_d_303_98" x="0" y="0" width="578" height="100" filterUnits="userSpaceOnUse" color-interpolation-filters="sRGB">
<feFlood flood-opacity="0" result="BackgroundImageFix"/>
<feColorMatrix in="SourceAlpha" type="matrix" values="0 0 0 0 0 0 0 0 0 0 0 0 0 0 0 0 0 0 127 0" result="hardAlpha"/>
<feOffset dx="4" dy="4"/>
<feGaussianBlur stdDeviation="2"/>
<feComposite in2="hardAlpha" operator="out"/>
<feColorMatrix type="matrix" values="0 0 0 0 0 0 0 0 0 0 0 0 0 0 0 0 0 0 0.25 0"/>
<feBlend mode="normal" in2="BackgroundImageFix" result="effect1_dropShadow_303_98"/>
<feBlend mode="normal" in="SourceGraphic" in2="effect1_dropShadow_303_98" result="shape"/>
</filter>
</defs>
</svg>
