<svg width="283" height="60" viewBox="0 0 283 60" fill="none" xmlns="http://www.w3.org/2000/svg">
<path d="M0.0320001 46V0.623997H11.488V46H0.0320001ZM9.12 46V36.336H33.696V46H9.12ZM9.12 27.568V18.16H31.392V27.568H9.12ZM9.12 10.288V0.623997H33.312V10.288H9.12ZM51.293 46.896C49.373 46.896 47.4743 46.64 45.597 46.128C43.7623 45.616 42.0343 44.9333 40.413 44.08C38.8343 43.184 37.4903 42.16 36.381 41.008L42.461 34.8C43.485 35.8667 44.701 36.6987 46.109 37.296C47.5597 37.8933 49.0957 38.192 50.717 38.192C51.6557 38.192 52.3597 38.064 52.829 37.808C53.341 37.552 53.597 37.1893 53.597 36.72C53.597 36.0373 53.2343 35.5253 52.509 35.184C51.8263 34.8 50.909 34.48 49.757 34.224C48.6477 33.9253 47.4743 33.584 46.237 33.2C44.9997 32.7733 43.805 32.2187 42.653 31.536C41.501 30.8533 40.5623 29.8933 39.837 28.656C39.1543 27.4187 38.813 25.84 38.813 23.92C38.813 21.9147 39.3463 20.1653 40.413 18.672C41.5223 17.136 43.0583 15.9413 45.021 15.088C46.9837 14.192 49.2877 13.744 51.933 13.744C54.621 13.744 57.181 14.2133 59.613 15.152C62.045 16.048 64.0077 17.4133 65.501 19.248L59.357 25.456C58.333 24.304 57.2023 23.5147 55.965 23.088C54.7277 22.6187 53.597 22.384 52.573 22.384C51.5917 22.384 50.8877 22.5333 50.461 22.832C50.0343 23.088 49.821 23.4507 49.821 23.92C49.821 24.4747 50.1623 24.9227 50.845 25.264C51.5703 25.6053 52.4877 25.9253 53.597 26.224C54.749 26.48 55.9223 26.8213 57.117 27.248C58.3543 27.6747 59.5277 28.272 60.637 29.04C61.789 29.7653 62.7063 30.7467 63.389 31.984C64.1143 33.2213 64.477 34.8213 64.477 36.784C64.477 39.8987 63.2823 42.3733 60.893 44.208C58.5037 46 55.3037 46.896 51.293 46.896ZM81.418 46.896C79.498 46.896 77.5993 46.64 75.722 46.128C73.8873 45.616 72.1593 44.9333 70.538 44.08C68.9593 43.184 67.6153 42.16 66.506 41.008L72.586 34.8C73.61 35.8667 74.826 36.6987 76.234 37.296C77.6847 37.8933 79.2207 38.192 80.842 38.192C81.7807 38.192 82.4847 38.064 82.954 37.808C83.466 37.552 83.722 37.1893 83.722 36.72C83.722 36.0373 83.3593 35.5253 82.634 35.184C81.9513 34.8 81.034 34.48 79.882 34.224C78.7727 33.9253 77.5993 33.584 76.362 33.2C75.1247 32.7733 73.93 32.2187 72.778 31.536C71.626 30.8533 70.6873 29.8933 69.962 28.656C69.2793 27.4187 68.938 25.84 68.938 23.92C68.938 21.9147 69.4713 20.1653 70.538 18.672C71.6473 17.136 73.1833 15.9413 75.146 15.088C77.1087 14.192 79.4127 13.744 82.058 13.744C84.746 13.744 87.306 14.2133 89.738 15.152C92.17 16.048 94.1327 17.4133 95.626 19.248L89.482 25.456C88.458 24.304 87.3273 23.5147 86.09 23.088C84.8527 22.6187 83.722 22.384 82.698 22.384C81.7167 22.384 81.0127 22.5333 80.586 22.832C80.1593 23.088 79.946 23.4507 79.946 23.92C79.946 24.4747 80.2873 24.9227 80.97 25.264C81.6953 25.6053 82.6127 25.9253 83.722 26.224C84.874 26.48 86.0473 26.8213 87.242 27.248C88.4793 27.6747 89.6527 28.272 90.762 29.04C91.914 29.7653 92.8313 30.7467 93.514 31.984C94.2393 33.2213 94.602 34.8213 94.602 36.784C94.602 39.8987 93.4073 42.3733 91.018 44.208C88.6287 46 85.4287 46.896 81.418 46.896ZM112.695 46.64C109.794 46.64 107.212 45.936 104.951 44.528C102.69 43.12 100.919 41.2 99.639 38.768C98.359 36.2933 97.719 33.4987 97.719 30.384C97.719 27.2267 98.359 24.4107 99.639 21.936C100.919 19.4613 102.69 17.5413 104.951 16.176C107.212 14.768 109.794 14.064 112.695 14.064C114.658 14.064 116.45 14.4267 118.071 15.152C119.692 15.8347 121.015 16.816 122.039 18.096C123.106 19.376 123.746 20.8267 123.959 22.448V38.192C123.746 39.856 123.106 41.328 122.039 42.608C121.015 43.8453 119.692 44.8267 118.071 45.552C116.45 46.2773 114.658 46.64 112.695 46.64ZM115.063 36.72C116.898 36.72 118.37 36.1227 119.479 34.928C120.631 33.7333 121.207 32.1973 121.207 30.32C121.207 29.0827 120.951 27.9947 120.439 27.056C119.927 26.1173 119.202 25.3707 118.263 24.816C117.367 24.2613 116.322 23.984 115.127 23.984C113.932 23.984 112.866 24.2613 111.927 24.816C111.031 25.3707 110.306 26.1387 109.751 27.12C109.239 28.0587 108.983 29.1253 108.983 30.32C108.983 31.5573 109.239 32.6667 109.751 33.648C110.263 34.5867 110.988 35.3333 111.927 35.888C112.866 36.4427 113.911 36.72 115.063 36.72ZM120.759 46V37.616L122.359 29.936L120.759 22.384V14.704H131.703V46H120.759ZM147.546 46.064L135.002 14.704H146.906L154.586 40.496H149.914L157.658 14.704H169.562L156.698 46.064H147.546ZM140.122 59.248L149.402 38.832L156.698 46.064L151.322 59.248H140.122ZM182.683 46V37.488H192.155C193.947 37.488 195.355 36.9973 196.379 36.016C197.445 34.992 197.979 33.6693 197.979 32.048C197.979 30.9813 197.744 30.0427 197.275 29.232C196.805 28.3787 196.123 27.7387 195.227 27.312C194.373 26.8427 193.349 26.608 192.155 26.608H182.683V18.352H191.451C192.944 18.352 194.16 17.9893 195.099 17.264C196.08 16.496 196.571 15.3227 196.571 13.744C196.571 12.1653 196.08 11.0133 195.099 10.288C194.16 9.52 192.944 9.136 191.451 9.136H182.683V0.623997H194.203C197.019 0.623997 199.451 1.15733 201.499 2.224C203.589 3.29066 205.189 4.72 206.299 6.512C207.408 8.304 207.963 10.3307 207.963 12.592C207.963 15.6213 206.917 18.1387 204.826 20.144C202.779 22.1067 199.792 23.3227 195.867 23.792V19.952C200.219 20.464 203.547 21.872 205.851 24.176C208.155 26.4373 209.307 29.296 209.307 32.752C209.307 35.312 208.667 37.5947 207.387 39.6C206.107 41.5627 204.293 43.12 201.947 44.272C199.643 45.424 196.912 46 193.755 46H182.683ZM173.595 46V0.623997H184.859V46H173.595ZM229.876 46.704C226.505 46.704 223.497 46 220.852 44.592C218.249 43.1413 216.18 41.1787 214.644 38.704C213.108 36.1867 212.34 33.3707 212.34 30.256C212.34 27.1413 213.086 24.368 214.58 21.936C216.116 19.4613 218.206 17.52 220.852 16.112C223.497 14.6613 226.484 13.936 229.812 13.936C233.14 13.936 236.105 14.6613 238.708 16.112C241.353 17.52 243.444 19.4613 244.979 21.936C246.516 24.368 247.284 27.1413 247.284 30.256C247.284 33.3707 246.516 36.1867 244.979 38.704C243.486 41.1787 241.417 43.1413 238.772 44.592C236.169 46 233.204 46.704 229.876 46.704ZM229.812 36.784C231.049 36.784 232.116 36.528 233.012 36.016C233.95 35.4613 234.676 34.6933 235.188 33.712C235.7 32.7307 235.956 31.6 235.956 30.32C235.956 29.04 235.678 27.9307 235.124 26.992C234.612 26.0107 233.908 25.264 233.012 24.752C232.116 24.1973 231.049 23.92 229.812 23.92C228.617 23.92 227.55 24.1973 226.612 24.752C225.673 25.3067 224.948 26.0747 224.436 27.056C223.924 27.9947 223.668 29.104 223.668 30.384C223.668 31.6213 223.924 32.7307 224.436 33.712C224.948 34.6933 225.673 35.4613 226.612 36.016C227.55 36.528 228.617 36.784 229.812 36.784ZM270.024 46L263.304 34.416L260.744 32.88L248.392 14.704H261.256L267.848 25.968L270.28 27.376L282.824 46H270.024ZM247.752 46L260.616 27.504L266.952 34.352L259.656 46H247.752ZM269.896 32.88L263.56 26.032L270.28 14.704H282.184L269.896 32.88Z" fill="white"/>
</svg>
